<svg xmlns="http://www.w3.org/2000/svg" viewBox="0 0 1886.5 1550.3"><defs><style>.a{fill:#fdcb50;}.b{fill:#231f20;}</style></defs><rect class="a" x="39.6" y="330.8" width="1807.2" height="888.75" rx="168.1" transform="translate(-261.2 575.5) rotate(-30)"/><path class="b" d="M383.6,980.4l59.3,102.7a23.3,23.3,0,0,0,31.9,8.5l115-66.3a23.3,23.3,0,0,1,25.8,1.6l8.6,6.5a23.4,23.4,0,0,1-2.4,38.9L363.2,1221.6a28.4,28.4,0,0,1-38.8-10.4h0a28.4,28.4,0,0,1,10.4-38.7l50.5-29.1a23.5,23.5,0,0,0,8.5-32l-59.3-102.6a23.4,23.4,0,0,0-31.9-8.6l-50.4,29.1a28.3,28.3,0,0,1-38.7-10.3h0a28.3,28.3,0,0,1,10.3-38.7l234-135.1a28.3,28.3,0,0,1,38.7,10.4h0a28.3,28.3,0,0,1-10.4,38.7l-93.9,54.2A23.4,23.4,0,0,0,383.6,980.4Z"/><rect class="b" x="1042.9" y="252" width="446.5" height="56.68" rx="28.3" transform="translate(29.5 670.6) rotate(-30)"/><rect class="b" x="108.6" y="712.6" width="719.2" height="56.68" rx="28.3" transform="translate(-307.8 333.4) rotate(-30)"/><rect class="b" x="514.2" y="717.3" width="345.3" height="56.68" rx="28.3" transform="translate(-280.8 443.3) rotate(-30)"/><rect class="b" x="1113.2" y="401.2" width="242.4" height="56.68" rx="28.3" transform="translate(-49.4 674.8) rotate(-30)"/><rect class="b" x="332.9" y="996.4" width="1500.8" height="56.68" rx="28.3" transform="translate(-367.3 678.9) rotate(-30)"/><path class="b" d="M699.5,1144,413.6,1309.1a28.3,28.3,0,0,1-38.7-10.4h0a28.3,28.3,0,0,1,10.4-38.7l282.3-163a23.5,23.5,0,0,1,25.8,1.6l8.6,6.6A23.3,23.3,0,0,1,699.5,1144Z"/><path class="b" d="M781.9,841.1l48.9,231.4a23.4,23.4,0,0,1-11.1,25.1l-27.8,16.1a23.5,23.5,0,0,1-26.3-2L581.8,965.4a23.4,23.4,0,0,0-26.3-1.9l-71.7,41.4a23.4,23.4,0,0,1-31.8-8.3h0a23.3,23.3,0,0,1,8.4-32.2l111.5-64.3a23.2,23.2,0,0,1,26.6,2.3l120.9,101.1c17.3,14.5,43-1.5,37.7-23.4L727.4,856.6a23.2,23.2,0,0,1,11-25.7l8.9-5.2A23.5,23.5,0,0,1,781.9,841.1Z"/><path class="b" d="M1057.1,949l-119.6,69.1a23.5,23.5,0,0,1-32-8.5L798.1,823.5a23.5,23.5,0,0,1,8.5-32l119.7-69.1a23.4,23.4,0,0,1,31.9,8.6l107.5,186.1A23.4,23.4,0,0,1,1057.1,949Zm-98.9-8.3,21.5-12.4a23.5,23.5,0,0,0,8.6-32l-50.8-87.9a23.3,23.3,0,0,0-31.9-8.5l-21.5,12.4a23.4,23.4,0,0,0-8.6,31.9l50.8,87.9A23.4,23.4,0,0,0,958.2,940.7Z"/><path class="b" d="M1377.7,341l40.7,70.4a23.4,23.4,0,0,1-8.6,31.9l-70.6,40.8a23.3,23.3,0,0,0-8.6,31.9l107.5,186.2a23.3,23.3,0,0,0,31.9,8.5l119.7-69.1a23.5,23.5,0,0,0,8.6-32L1426.8,312.7a23.4,23.4,0,0,0-31.9-8.6l-8.6,5A23.4,23.4,0,0,0,1377.7,341Zm134.6,279.8-21.6,12.5a23.4,23.4,0,0,1-31.9-8.6L1408,536.8a23.4,23.4,0,0,1,8.6-31.9l21.6-12.5a23.4,23.4,0,0,1,31.9,8.6l50.8,87.9A23.4,23.4,0,0,1,1512.3,620.8Z"/><path class="b" d="M1399.6,751.3l-118.3,68.3a23.5,23.5,0,0,1-32-8.5L1141.9,624.9a23.3,23.3,0,0,1,8.5-31.9l119.7-69.1a23.4,23.4,0,0,1,31.9,8.6l53.1,91.9a23.4,23.4,0,0,1-8.6,31.9l-70.6,40.8a23.3,23.3,0,0,0-8.5,31.9l2.7,4.6a23.4,23.4,0,0,0,31.9,8.6l69.3-40a23.3,23.3,0,0,1,31.9,8.5l5,8.6A23.5,23.5,0,0,1,1399.6,751.3Zm-146.3-93.5,21.5-12.4a23.3,23.3,0,0,0,8.5-31.9l-7.7-13.4a23.2,23.2,0,0,0-31.9-8.5L1222.2,604a23.4,23.4,0,0,0-8.6,31.9l7.8,13.3A23.3,23.3,0,0,0,1253.3,657.8Z"/><path class="b" d="M1124.8,634.9l5,8.6a23.4,23.4,0,0,1-8.6,31.9l-7.6,4.4a23.2,23.2,0,0,0-8.5,31.9L1184,848.5a23.4,23.4,0,0,1-8.5,32l-8.6,4.9a23.2,23.2,0,0,1-31.9-8.5l-79-136.8a23.5,23.5,0,0,0-32-8.6l-7.7,4.5a23.4,23.4,0,0,1-31.9-8.6l-5-8.6a23.4,23.4,0,0,1,8.6-31.9l104.9-60.6A23.3,23.3,0,0,1,1124.8,634.9Z"/><rect class="b" x="1518.8" y="237.6" width="56.7" height="276.22" rx="28.3" transform="matrix(0.87, -0.5, 0.5, 0.87, 19.43, 823.9)"/><rect class="b" x="1627.5" y="530.1" width="56.7" height="67.8" rx="28.3" transform="translate(-60.1 903.5) rotate(-30)"/><path class="b" d="M1007.8,489.8l81.6,28.3c23,7.9,26,39.1,4.9,51.3l-3.8,2.1a28.2,28.2,0,0,1-23.4,2.3L1003.9,552a28.2,28.2,0,0,0-37,21.4L954.2,639a28.5,28.5,0,0,1-13.7,19.2l-3.8,2.2c-21,12.1-46.5-6.1-41.9-29.9l16.4-84.9a28.4,28.4,0,0,0-18.6-32.1l-81.7-28.3c-22.9-7.9-25.9-39.1-4.9-51.3l3.8-2.1a27.9,27.9,0,0,1,23.4-2.3l63.2,21.8a28.3,28.3,0,0,0,37.1-21.4l12.7-65.6a28.1,28.1,0,0,1,13.6-19.2l3.8-2.2c21-12.1,46.6,6.1,42,29.9l-16.4,84.9A28.2,28.2,0,0,0,1007.8,489.8Z"/></svg>