<svg xmlns="http://www.w3.org/2000/svg" viewBox="0 0 2521.2 1993.1"><defs><style>.a{fill:#fecc4f;}.b{fill:#231f20;}</style></defs><rect class="a" x="28.7" y="486" width="2463.8" height="1021.07" rx="168.1" transform="translate(-329.4 763.8) rotate(-30)"/><path class="b" d="M990.3,1360.5a23.3,23.3,0,0,1-2.8,38.4L740.6,1541.1a28.1,28.1,0,0,1-38.4-10.4,27.7,27.7,0,0,1-2.8-21.3,28.3,28.3,0,0,1,13.2-17.1l243.5-140.2a23.1,23.1,0,0,1,26,1.9Z"/><path class="b" d="M1447.2,607.7l81.6,28.2c22.9,7.9,25.9,39.1,4.9,51.2l-3.8,2.2a28.4,28.4,0,0,1-23.3,2.3l-63.2-21.8a28.2,28.2,0,0,0-37,21.3l-12.7,65.6a28.1,28.1,0,0,1-13.6,19.1l-3.8,2.2c-21,12.1-46.5-6-41.9-29.9l16.4-84.7a28.4,28.4,0,0,0-18.6-32.1l-81.5-28.2c-23-7.9-25.9-39.1-4.9-51.2l3.7-2.2a28.3,28.3,0,0,1,23.4-2.2l63.2,21.8a28.3,28.3,0,0,0,37-21.4l12.6-65.6a28.6,28.6,0,0,1,13.7-19.1l3.8-2.2c21-12.1,46.5,6.1,41.9,29.9l-16.4,84.7A28.3,28.3,0,0,0,1447.2,607.7Z"/><rect class="b" x="1561.4" y="473.2" width="477.9" height="56.25" rx="28.1" transform="translate(-9.4 967.4) rotate(-30)"/><rect class="b" x="771.6" y="951" width="402.3" height="56.25" rx="28.1" transform="translate(-359.2 617.6) rotate(-30)"/><rect class="b" x="1497.8" y="349.3" width="579.5" height="56.25" rx="28.1" transform="translate(50.8 944.4) rotate(-30)"/><rect class="b" x="413.6" y="881.7" width="903.6" height="56.25" rx="28.1" transform="translate(-339 554.6) rotate(-30)"/><path class="b" d="M2224.8,814.8,505.6,1807a28,28,0,0,1-38.4-10.3h0a28.1,28.1,0,0,1,10.3-38.4L2196.8,766a28.2,28.2,0,0,1,38.4,10.4h0A28.2,28.2,0,0,1,2224.8,814.8Z"/><path class="b" d="M1437.3,989.8l54.4,94.2a13.4,13.4,0,0,0-1.2-2.4l-51.7-89.5A11.4,11.4,0,0,0,1437.3,989.8Zm-149.9,62.8a16.4,16.4,0,0,0-2.2,1.4l85.9-49.6a11,11,0,0,0,1.4-.9Zm-9.3,30.5.8,1.4,51.6,89.4a23.3,23.3,0,0,0,1.7,2.6l-54.7-94.8Z"/><path class="b" d="M1351.3,887.1l-119.5,69a23.4,23.4,0,0,0-9.8,29.4l24.5,42.4a23.3,23.3,0,0,0,31.9,8.6l8.6-5a22.9,22.9,0,0,0,10.9-14.5,22,22,0,0,0-.5-13.4l-.7-1.8h-.1c-4.8-10.8,1.8-19.1,12.3-25.2l21.5-12.4a23.7,23.7,0,0,1,32.1,8.9l12.4,21.5a8.5,8.5,0,0,1-2.4,9l-1.4,1-85.9,49.5a23.4,23.4,0,0,0-7.7,27.7l54.8,94.8a23.2,23.2,0,0,0,30.1,6l56.2-32.5a7.8,7.8,0,0,0,3.2-3.3l12.6-23.7a7.9,7.9,0,0,1,3.2-3.3,8.4,8.4,0,0,1,11.5,3.1,8.4,8.4,0,0,0,11.5,3l21.4-12.3a23.3,23.3,0,0,0,9.7-29.5L1381.6,893.3A23.3,23.3,0,0,0,1351.3,887.1Zm52.5,192.8c-4.1,7.8-9.2,17.3-13.1,24.6-7.1,13.3-31.1,17.3-38.8,4.4l-3.4-5.8a26.7,26.7,0,0,1-2-4.6c-3.3-10.2,5.8-24.5,15.5-30.1l21.4-12.4h.2c12.6-7.1,27.4,6.3,22.1,19.8A38.9,38.9,0,0,1,1403.8,1079.9Z"/><path class="b" d="M2047.8,661.3l70.5-40.7a23.4,23.4,0,0,0,8.5-31.9l-53-91.8a23.2,23.2,0,0,0-31.9-8.5l-119.5,69a23.4,23.4,0,0,0-8.6,31.9l107.4,185.9a23.3,23.3,0,0,0,31.9,8.5l118.2-68.3a23.3,23.3,0,0,0,8.5-31.9l-4.9-8.5a23.4,23.4,0,0,0-31.9-8.6l-69.2,40a23.4,23.4,0,0,1-31.9-8.6l-2.6-4.6A23.2,23.2,0,0,1,2047.8,661.3Zm-62.2-61.1a23.3,23.3,0,0,1,8.5-31.9l21.4-12.4a23.5,23.5,0,0,1,32,8.6l7.7,13.3a23.4,23.4,0,0,1-8.6,31.9l-21.4,12.4a23.3,23.3,0,0,1-31.9-8.6Z"/><path class="b" d="M1895.1,600.2l5,8.5a23.4,23.4,0,0,1-8.6,31.9l-17.3,10.1a23.3,23.3,0,0,0-8.6,31.8l78.9,136.7a23.2,23.2,0,0,1-8.5,31.9l-8.6,5a23.4,23.4,0,0,1-31.9-8.6l-78.9-136.6a23.4,23.4,0,0,0-31.9-8.6l-17.4,10.1a23.4,23.4,0,0,1-31.9-8.6l-5-8.6a23.3,23.3,0,0,1,8.6-31.8l124.2-71.8A23.4,23.4,0,0,1,1895.1,600.2Z"/><rect class="b" x="2128.2" y="294.4" width="56.6" height="398.58" rx="28.3" transform="translate(42.1 1144.4) rotate(-30)"/><rect class="b" x="2270.4" y="706" width="56.6" height="67.72" rx="28.3" transform="matrix(0.87, -0.5, 0.5, 0.87, -61.96, 1248.46)"/><path class="b" d="M1577.9,788.8l102.4,177.5a28.1,28.1,0,0,1-10.3,38.4h0a28.2,28.2,0,0,1-38.4-10.3l-26.3-45.5a28,28,0,0,0-38.4-10.3l-16.9,9.8a28.2,28.2,0,0,0-10.3,38.4l26.3,45.5a28.1,28.1,0,0,1-10.3,38.4h0a28.1,28.1,0,0,1-38.4-10.3L1414.8,883a28.2,28.2,0,0,1,10.3-38.4h0a28.1,28.1,0,0,1,38.5,10.3l19.9,34.4a28,28,0,0,0,38.4,10.3l16.9-9.7a28.1,28.1,0,0,0,10.3-38.4L1529.2,817a28.1,28.1,0,0,1,10.3-38.5h0A28.2,28.2,0,0,1,1577.9,788.8Z"/><path class="b" d="M1862.3,892.2l-109.4,63.2a28,28,0,0,1-38.4-10.3L1612.6,768.7a28.1,28.1,0,0,1,10.3-38.4h0a28.1,28.1,0,0,1,38.4,10.3L1735,868.3a28.2,28.2,0,0,0,38.5,10.3l60.7-35.1a28.1,28.1,0,0,1,38.4,10.3h0A28,28,0,0,1,1862.3,892.2Z"/><path class="b" d="M695.6,1444.2l-112.2,64.7a28.1,28.1,0,0,1-38.4-10.3l-99.2-171.9a28.1,28.1,0,0,1,10.2-38.4l112.2-64.8a28.2,28.2,0,0,1,38.4,10.3h0a28.3,28.3,0,0,1-10.3,38.5l-63.4,36.6a28,28,0,0,0-10.3,38.4l43,74.5a28.1,28.1,0,0,0,38.4,10.3l63.4-36.6a28.1,28.1,0,0,1,38.5,10.3h0A28.2,28.2,0,0,1,695.6,1444.2Z"/><path class="b" d="M1208,1006.7a30.5,30.5,0,0,1,3.5,10l34.4,206.1c2.4,15.7-4.5,30.5-17.4,38l-.5.3c-13.4,7.4-30.1,5.4-42.4-5.1l-49.6-47.2a8.4,8.4,0,0,0-13.6,7.8l15.9,65.5c2.9,16.2-3.8,31.7-17.3,39.5h0c-13.4,7.7-30.2,5.9-42.8-4.8L948.5,1203a17.5,17.5,0,0,0-20.2-2l-21.6,12.5c-13.9,8-32.5,3.6-40.1-10.5a28.8,28.8,0,0,1-2.3-20.5,28.5,28.5,0,0,1,13.1-17.1l51-29.4a30.6,30.6,0,0,1,4.9-2.2,27.9,27.9,0,0,1,27.4,5.1l89.2,75.3a8.3,8.3,0,0,0,13.5-7.8l-14.4-78.5a28.2,28.2,0,0,1,13.7-29.7l.6-.4a28.2,28.2,0,0,1,32.5,3l64.6,55a8.3,8.3,0,0,0,13.5-7.6l-18.1-123.3a28.1,28.1,0,0,1,52.2-18.2Z"/><path class="b" d="M933.3,1133.8a30.6,30.6,0,0,0-4.9,2.2A30.6,30.6,0,0,1,933.3,1133.8Z"/><rect class="b" x="1186.9" y="838.2" width="56.6" height="67.72" rx="28.3" transform="translate(-273.2 724.4) rotate(-30)"/><rect class="b" x="1248" y="803" width="56.6" height="67.72" rx="28.3" transform="translate(-247.4 750.3) rotate(-30)"/><path class="b" d="M346.4,1274.5l171.9,297.7a28.3,28.3,0,0,0,38.5,10.3l65.3-37.8a28.2,28.2,0,0,1,38.4,10.3h0a28,28,0,0,1-10.3,38.4L449.3,1709.5a28.2,28.2,0,0,1-38.4-10.3h0a28.1,28.1,0,0,1,10.3-38.5l38.1-22a28,28,0,0,0,10.3-38.4L297.7,1302.6a28,28,0,0,0-38.4-10.3l-38.1,22a28.1,28.1,0,0,1-38.5-10.3h0a28.2,28.2,0,0,1,10.3-38.4l201-116a28.1,28.1,0,0,1,38.4,10.3h0a28.1,28.1,0,0,1-10.3,38.4L356.7,1236A28.3,28.3,0,0,0,346.4,1274.5Z"/><path class="b" d="M785.5,1130.5l99.3,172a28.1,28.1,0,0,1-10.3,38.4h0a28.1,28.1,0,0,1-38.4-10.3L806.3,1279a11.6,11.6,0,0,0-15.8-4.2l-46.6,26.9a11.6,11.6,0,0,0-4.2,15.8l29.8,51.6a28.2,28.2,0,0,1-10.3,38.4h0a28,28,0,0,1-38.4-10.3l-99.3-172a28.1,28.1,0,0,1,10.3-38.4h0a28.2,28.2,0,0,1,38.4,10.3l29.8,51.6a11.5,11.5,0,0,0,15.8,4.3l46.6-27a11.4,11.4,0,0,0,4.2-15.7l-29.8-51.7a28.2,28.2,0,0,1,10.3-38.4h0A28.2,28.2,0,0,1,785.5,1130.5Z"/></svg>