<svg xmlns="http://www.w3.org/2000/svg" viewBox="0 0 2199.3 1813"><defs><style>.a{fill:#fecc4f;}.b{fill:#231f20;}</style></defs><rect class="a" x="56.4" y="391" width="2086.4" height="1030.89" rx="168.1" transform="translate(-305.9 671.3) rotate(-30)"/><path class="b" d="M1050.9,913.2l48.9,231.1a23.5,23.5,0,0,1-11.1,25.1l-27.8,16a23.4,23.4,0,0,1-26.2-1.9L851.1,1037.3a23.4,23.4,0,0,0-26.2-1.9l-48,27.7a23.4,23.4,0,0,1-31.7-8.3h0a23.3,23.3,0,0,1,8.4-32.2l87.5-50.5a23.4,23.4,0,0,1,26.7,2.3l120.7,101c17.3,14.4,43-1.5,37.7-23.4L996.5,928.7a23.1,23.1,0,0,1,11-25.7l8.9-5.2A23.4,23.4,0,0,1,1050.9,913.2Z"/><path class="b" d="M1199.9,802.8l-119.6,69a23.4,23.4,0,0,0-8.5,31.9l107.3,185.8a23.4,23.4,0,0,0,31.9,8.6l119.5-69a23.4,23.4,0,0,0,8.6-31.9L1231.8,811.3A23.5,23.5,0,0,0,1199.9,802.8Zm61.8,173.7a23.3,23.3,0,0,1-8.5,31.9l-21.5,12.4a23.4,23.4,0,0,1-31.9-8.6l-50.7-87.8a23.4,23.4,0,0,1,8.6-31.9l21.4-12.4a23.4,23.4,0,0,1,31.9,8.6Z"/><path class="b" d="M1415.2,705.4l5,8.6a23.4,23.4,0,0,1-8.6,31.9l-17.3,10a23.4,23.4,0,0,0-8.6,31.9l78.9,136.7a23.3,23.3,0,0,1-8.5,31.9l-8.6,4.9a23.3,23.3,0,0,1-31.9-8.5l-78.9-136.7a23.3,23.3,0,0,0-31.9-8.5l-17.4,10.1a23.4,23.4,0,0,1-31.9-8.6l-5-8.6a23.4,23.4,0,0,1,8.6-31.9l124.2-71.7A23.3,23.3,0,0,1,1415.2,705.4Z"/><path class="b" d="M1750.5,582.9l45.7,79.1a28.3,28.3,0,0,0,38.6,10.4l8.9-5.2a28.3,28.3,0,0,1,38.6,10.4h0a28.3,28.3,0,0,1-10.3,38.7l-115.7,66.8a28.4,28.4,0,0,1-38.7-10.4h0A28.4,28.4,0,0,1,1728,734l8.8-5a28.4,28.4,0,0,0,10.3-38.7l-45.6-79a28.3,28.3,0,0,0-38.7-10.4l-8.7,5.1a28.3,28.3,0,0,1-38.7-10.4h0a28.4,28.4,0,0,1,10.3-38.7l115.7-66.8a28.3,28.3,0,0,1,38.7,10.4h0a28.3,28.3,0,0,1-10.4,38.7l-8.8,5.1A28.3,28.3,0,0,0,1750.5,582.9Z"/><path class="b" d="M1269.6,538.8l81.6,28.2c22.9,7.9,25.9,39.1,4.9,51.2l-3.8,2.2a28.2,28.2,0,0,1-23.4,2.2l-63.1-21.7a28.2,28.2,0,0,0-37,21.3l-12.7,65.6a28.4,28.4,0,0,1-13.6,19.1l-3.8,2.2c-21,12.1-46.6-6.1-42-29.9l16.4-84.7a28.3,28.3,0,0,0-18.5-32.1L1073,534.2c-22.9-7.9-25.9-39.1-4.9-51.2l3.8-2.2a28.6,28.6,0,0,1,23.4-2.3l63.1,21.8a28.2,28.2,0,0,0,37-21.3l12.7-65.6a28.4,28.4,0,0,1,13.6-19.1l3.8-2.2c21-12.1,46.5,6.1,41.9,29.9l-16.3,84.7A28.3,28.3,0,0,0,1269.6,538.8Z"/><rect class="b" x="1393.4" y="440.1" width="334.7" height="56.25" rx="28.1" transform="translate(-25 843.1) rotate(-30)"/><rect class="b" x="661.3" y="818.3" width="488.7" height="56.25" rx="28.1" transform="translate(-301.9 566.2) rotate(-30)"/><rect class="b" x="1329.3" y="314.4" width="443.8" height="56.25" rx="28.1" transform="translate(36.6 821.5) rotate(-30)"/><rect class="b" x="409.1" y="768.4" width="711.1" height="56.25" rx="28.1" transform="translate(-295.8 489.1) rotate(-30)"/><path class="b" d="M1929.9,813.7,540.4,1615.5a28.2,28.2,0,0,1-38.4-10.4h0a28.2,28.2,0,0,1,10.4-38.4L1901.8,764.9a28.2,28.2,0,0,1,38.4,10.3h0A28.2,28.2,0,0,1,1929.9,813.7Z"/><path class="b" d="M956.9,1208a23.3,23.3,0,0,1-2.9,38.4L483.9,1517.5a28.1,28.1,0,0,1-38.4-10.4,27.7,27.7,0,0,1-2.8-21.3,27.9,27.9,0,0,1,13.1-17l466.8-269.2a23.3,23.3,0,0,1,26.1,1.9Z"/><rect class="b" x="1975.3" y="704.6" width="56.6" height="67.72" rx="28.3" transform="translate(-100.8 1100.7) rotate(-30)"/><path class="b" d="M1922.9,655.2,1751.6,358a28.1,28.1,0,0,1,10.3-38.4h0a28,28,0,0,1,38.4,10.3l171.3,297.3a28.1,28.1,0,0,1-10.3,38.4h0A28.1,28.1,0,0,1,1922.9,655.2Z"/><path class="b" d="M297.9,1115.9l35.6,61.7a15.1,15.1,0,0,0,20.5,5.5l65.7-37.9a28.1,28.1,0,0,1,38.4,10.2h0a28.1,28.1,0,0,1-10.3,38.5l-65.6,37.9a14.9,14.9,0,0,0-5.5,20.5l49.6,86a15.1,15.1,0,0,0,20.6,5.5l101.3-58.5a28.2,28.2,0,0,1,38.4,10.3h0a28.2,28.2,0,0,1-10.3,38.4l-142.7,82.4a23.5,23.5,0,0,1-32.1-8.6L225.3,1102.7a23.6,23.6,0,0,1,8.6-32.2l142.7-82.3A28,28,0,0,1,415,998.5h0a28.1,28.1,0,0,1-10.3,38.4l-101.3,58.5A15,15,0,0,0,297.9,1115.9Z"/><path class="b" d="M755.8,1228.7,658.3,1285a37.2,37.2,0,0,1-50.8-13.6L498,1081.8a28.3,28.3,0,0,1,10.3-38.5h0a28.2,28.2,0,0,1,38.4,10.3l81.4,140.9a37.2,37.2,0,0,0,50.8,13.6h0a37.2,37.2,0,0,0,13.7-50.8l-81.4-140.9A28.1,28.1,0,0,1,621.5,978h0a28,28,0,0,1,38.4,10.3l109.5,189.6A37.2,37.2,0,0,1,755.8,1228.7Z"/><path class="b" d="M1568.2,767l70.5-40.7a23.3,23.3,0,0,0,8.5-31.9l-53-91.7a23.3,23.3,0,0,0-31.8-8.6l-119.6,69a23.4,23.4,0,0,0-8.5,31.9l107.3,185.9a23.4,23.4,0,0,0,31.9,8.6l118.2-68.3a23.2,23.2,0,0,0,8.5-31.9l-4.9-8.6a23.3,23.3,0,0,0-31.9-8.5l-69.2,39.9a23.4,23.4,0,0,1-31.9-8.5l-2.6-4.6A23.4,23.4,0,0,1,1568.2,767ZM1506,706a23.2,23.2,0,0,1,8.5-31.9l21.5-12.4a23.3,23.3,0,0,1,31.9,8.5l7.7,13.4a23.4,23.4,0,0,1-8.6,31.9l-21.4,12.4a23.4,23.4,0,0,1-31.9-8.6Z"/></svg>