<svg xmlns="http://www.w3.org/2000/svg" viewBox="0 0 2939 2266.8"><defs><style>.a{fill:#fecc4f;}.b{fill:#231f20;}</style></defs><rect class="a" x="12.6" y="594.8" width="2913.8" height="1077.32" rx="168.1" transform="translate(-369.8 886.6) rotate(-30)"/><rect class="b" x="1619.9" y="429.9" width="872.3" height="56.61" rx="28.3" transform="translate(46.3 1089.4) rotate(-30)"/><rect class="b" x="669.4" y="1125" width="816.9" height="56.61" rx="28.3" transform="matrix(0.87, -0.5, 0.5, 0.87, -432.25, 693.42)"/><rect class="b" x="531.7" y="1059" width="909.3" height="56.61" rx="28.3" transform="matrix(0.87, -0.5, 0.5, 0.87, -411.53, 638.87)"/><rect class="b" x="1953.2" y="480" width="483.7" height="56.61" rx="28.3" transform="translate(39.9 1165.6) rotate(-30)"/><rect class="b" x="401.4" y="1772.3" width="485" height="56.61" rx="28.3" transform="translate(-814 563.2) rotate(-30)"/><rect class="b" x="317.8" y="1346.9" width="2572.4" height="56.61" rx="28.3" transform="translate(-472.7 986.2) rotate(-30)"/><rect class="b" x="2492.2" y="309" width="56.6" height="275.87" rx="28.3" transform="translate(114.2 1320.1) rotate(-30)"/><rect class="b" x="2600.7" y="601.1" width="56.6" height="67.72" rx="28.3" transform="translate(34.7 1399.6) rotate(-30)"/><path class="b" d="M1588.9,760.9l81.6,28.2c22.9,7.9,25.9,39.1,4.9,51.2l-3.8,2.2a28.2,28.2,0,0,1-23.4,2.2l-63.1-21.8a28.3,28.3,0,0,0-37,21.4l-12.7,65.6a28.1,28.1,0,0,1-13.6,19.1l-3.8,2.2c-21,12.1-46.5-6.1-41.9-29.9l16.4-84.7a28.4,28.4,0,0,0-18.6-32.1l-81.5-28.2c-23-7.9-25.9-39.1-5-51.3l3.8-2.1a28.3,28.3,0,0,1,23.4-2.3l63.2,21.8a28.4,28.4,0,0,0,37-21.3l12.6-65.6a28.4,28.4,0,0,1,13.7-19.1l3.8-2.2c21-12.2,46.5,6,41.9,29.8l-16.4,84.8A28.3,28.3,0,0,0,1588.9,760.9Z"/><path class="b" d="M2442.8,470.1a28.4,28.4,0,0,0-21.4,2.9L1825.7,816.9a12.9,12.9,0,0,1-17.6-4.7l-.9-1.4a34.6,34.6,0,0,1,3.7-40.2,151.2,151.2,0,0,1,35.2-28.5l.8-.6c24-13.8,63.8-12.9,91.7-9.5a28.2,28.2,0,0,0,27.6-42.2,27.5,27.5,0,0,0-20.6-13.7c-33.7-4.2-87.5-6-126.9,16.8l-1.6.9a206.3,206.3,0,0,0-48.2,39.5c-25.9,29.1-30,71.6-10.4,105.6l.8,1.3c3.5,6.1,1.7,14.1-4.3,17.6a27.9,27.9,0,0,0-13.3,17.1,28.1,28.1,0,0,0,41.3,31.6,12.8,12.8,0,0,1,17.3,4.7l93.9,162.7c8.1,14,26.7,19.8,40.3,11.1a28.2,28.2,0,0,0,9.2-37.8l-94.6-163.9a13,13,0,0,1,4.7-17.7l119.3-68.8a12.9,12.9,0,0,1,17.6,4.7l8.1,14.1c.1.1,0,.3-.1.4a108.5,108.5,0,0,0-37.1,13c-46.1,26.6-56.6,74.4-27.5,124.7,23.6,41,69,50.2,115.3,23.5,10.6-6.1,19.1-16.2,26.1-28.1.1-.1.3-.2.4,0l8.7,15c8,14,26.6,19.7,40.3,11a28.2,28.2,0,0,0,9.2-37.8L2099.8,878v-.2c1.5-8.1,6.1-67.2,15-72.3,15-8.7,26.8,7,26.9,7.2s1.6,2.7,2.6,4.3c3.8,6,8.9,14.2,7.4,20-.3,1.3-1.3,3.7-4.3,7-8.3,9.3-10.2,22.7-4,33.5a28.1,28.1,0,0,0,45.1,4.9c9-9.7,14.9-20.3,17.8-31.8,7.2-28.8-7.2-52-14.2-63.3l-1.6-2.7c-16-27.6-60.9-52.6-103.8-27.8-16.8,9.7-26.7,25.4-32.4,41.6,0,.2-.3.2-.4.1l-14.5-25.1a13.1,13.1,0,0,1,4.7-17.7l152.8-88.2h.4c10.3,11.8,21.6,28.6,22,43.9.2,6-1,15.2-13.2,26.4l-.2.2a27.9,27.9,0,0,0-4.6,35.4l.2.3c20.1,31.3,71,65.9,128.8,32.5,22.4-13,37.3-29.8,46.9-46.9a.3.3,0,0,1,.5,0L2393,786c8.1,14,26.7,19.7,40.3,11a28.2,28.2,0,0,0,9.2-37.8l-94.6-163.9a12.9,12.9,0,0,1,4.7-17.6l26.7-15.5a13.1,13.1,0,0,1,17.7,4.7l93.8,162.6c8.1,14,26.7,19.7,40.3,11a27.9,27.9,0,0,0,12.1-16.4,28.2,28.2,0,0,0-2.9-21.3L2439.4,527.9c-.1-.2-.1-.3.1-.4l8.7-5c14-8.1,19.7-26.7,11-40.3A27.9,27.9,0,0,0,2442.8,470.1ZM2028.2,917.4c-5.2,9.2-13.8,16.1-24,18.3-13.9,2.9-18.6-5.2-21.4-10.1-19-32.9-2.2-42.6,6.9-47.9,12.5-7.2,28.2-7.9,41-6.7a.2.2,0,0,1,.2.2l9,15.5c0,.1.1.2,0,.2C2036,901.4,2032.8,909.4,2028.2,917.4Zm306.6-232.2a27.2,27.2,0,0,1,3.4,18.7c-2.8,15.8-11.2,39.4-36,53.7-12.3,7.1-22.7,7-31.1,4.1a8.1,8.1,0,0,1-4.7-11.3,82.9,82.9,0,0,0,9.2-40.6c-.7-22.7-10.1-43.3-21-59.9a12.8,12.8,0,0,1,4.3-18.2l22.6-13a13,13,0,0,1,17.7,4.7Z"/><path class="b" d="M779.5,1453.5h0a28.2,28.2,0,0,0,38.4,10.3l1.9-1.1a9.4,9.4,0,0,1,12.9,3.5l25.5,44.3a14.2,14.2,0,0,1-3.3,18.2,103.7,103.7,0,0,0-10.4,9.6c-14.1,15-18,35-10.3,53.6,3.3,8,8,14.5,14,19.1,9.1,7,20.5,9.9,34,8.6a73.3,73.3,0,0,0,29.4-9c1.6-1,3.2-1.9,4.7-3,19.7-14,26-35.6,23.4-56.5a11.7,11.7,0,0,1,5.8-11.7l41.3-23.9a9.4,9.4,0,0,1,12.9,3.5l31.8,55a28.2,28.2,0,0,0,38.4,10.3h0a27.9,27.9,0,0,0,10.3-38.3l-96.4-167a9.5,9.5,0,0,1,3.5-12.9l139-80.3a9.5,9.5,0,0,1,12.9,3.5l9.5,16.3a9.5,9.5,0,0,1-3.5,12.9l-52.3,30.3c-36.8,21.2-39.6,59.4-8.4,113.5,19.1,33,49.2,50.7,72.6,60a28.1,28.1,0,0,0,38.2-22.4h0a28.1,28.1,0,0,0-17.9-29.9c-14.5-5.8-33.1-16.5-44.2-35.8-13.5-23.4-14-33.2-13.9-35.4l1.7-1.2,52.3-30.2a9.4,9.4,0,0,1,12.9,3.4l49.4,85.6a28.1,28.1,0,0,0,38.4,10.2h.1a28.1,28.1,0,0,0,10.2-38.4l-96.4-167a9.5,9.5,0,0,1,3.5-12.9l119.3-68.8a9.5,9.5,0,0,1,12.9,3.4h0a6.5,6.5,0,0,1-1.7,8.2c-19.8,14.4-43.3,37.1-53.1,68-8.7,27.4-4.8,56.5,11.2,84.3,21.2,36.7,49,46,68.6,47.3,37.7,2.5,73.3-22.9,94.4-43.1,9,3.8,17.8,7.5,25.5,10.6a28.2,28.2,0,0,0,36.8-15.9h0a28,28,0,0,0-15.6-36.1l-23.2-9.6c-.1-15.3-3.3-31.1-8.2-39.4-8.9-15.2-24.7-22.9-42.4-20.5-10.6,1.4-42.8,5.8-49.7,33.4-5.7,22.2,10.3,39.6,22.7,49.8-12.1,8.7-25.7,15.5-36.7,14.8-3.1-.2-12.9-.9-23.5-19.4-8.1-14-10.2-26.7-6.3-38.9,8.2-26.4,41.9-47.1,54.1-52.8h0a28.1,28.1,0,0,0,12.5-39.6l-16.7-29.1a9.4,9.4,0,0,1,3.4-12.9l36.9-21.2a9.4,9.4,0,0,1,12.9,3.4l96.4,167a28.1,28.1,0,0,0,38.3,10.3h.1a28.1,28.1,0,0,0,10.3-38.3l-101.1-175.2,134.6-77.7a9.5,9.5,0,0,1,12.9,3.4l15.1,26.3a9.4,9.4,0,0,1-3.4,12.9l-60.3,34.8a44.2,44.2,0,0,0-9.5,69.2l11.7,11.9a28.1,28.1,0,0,0,39.8.4h0a28.1,28.1,0,0,0,.4-39.7l-.8-.8,46.8-27.1a9.5,9.5,0,0,1,12.9,3.5l43.7,75.6a27.9,27.9,0,0,0,38.3,10.3h.1a28.2,28.2,0,0,0,10.3-38.4l-96.4-167a9.4,9.4,0,0,1,3.4-12.9h0a20.1,20.1,0,0,0,7.4-27.4l-4.1-7a28.2,28.2,0,0,0-38.4-10.3L789.8,1415A28.2,28.2,0,0,0,779.5,1453.5Zm179.2,13.3-37.4,21.6a9.5,9.5,0,0,1-12.9-3.5l-27-46.9a9.4,9.4,0,0,1,3.4-12.9l37.4-21.5a9.4,9.4,0,0,1,12.9,3.4l27.1,46.9A9.5,9.5,0,0,1,958.7,1466.8Z"/><path class="b" d="M628.2,1379.8l-115.9-39a28.2,28.2,0,0,0-35.6,17.7h0a28.2,28.2,0,0,0,17.7,35.6l68.8,23.1-116.8,67.4-57.1-53.9a28.1,28.1,0,0,0-39.7,1.2h0a28,28,0,0,0,1.1,39.7l31.5,29.7-90.8-23.3a28.2,28.2,0,0,0-34.3,20.3h0a28.2,28.2,0,0,0,20.3,34.3l59.5,15.2-47.6,27.6a28,28,0,0,0-10.3,38.4h0a28.2,28.2,0,0,0,38.4,10.3l12.2-7.1,36.5,63.3a110.5,110.5,0,0,0-20.2,16.7c-14.1,14.9-17.9,35-10.3,53.7a45.2,45.2,0,0,0,14.1,19c9,7,20.4,9.9,33.9,8.6a71.8,71.8,0,0,0,29.3-8.9c1.6-1,3.3-2.1,4.8-3.2,22.1-15.6,27.4-41,22-64l48-27.7a10,10,0,0,1,13.7,3.6l39.4,68.2a28.1,28.1,0,0,0,38.4,10.3h0a28,28,0,0,0,10.3-38.4L485.8,1538.6a10.1,10.1,0,0,1,3.6-13.8l122.8-70.9a10.2,10.2,0,0,1,13.8,3.7l14.5,25.2a10.1,10.1,0,0,1-3.7,13.8L577,1531.1a44.1,44.1,0,0,0-9.4,69.2l11.6,11.9a28.1,28.1,0,0,0,39.8.4h0a28.1,28.1,0,0,0,.4-39.8l-.8-.8,46.4-26.7a10,10,0,0,1,13.7,3.6l51,88.5a28.2,28.2,0,0,0,38.4,10.3h.1a28.1,28.1,0,0,0,10.2-38.4L670.3,1421.9a1.2,1.2,0,0,1,.4-1.7l1.1-.6a28.3,28.3,0,0,0,10.3-38.5h0a28.2,28.2,0,0,0-38.4-10.3Zm-168.6,246-36.3,21a10.1,10.1,0,0,1-13.8-3.7l-26.2-45.4A10,10,0,0,1,387,1584l36.3-21a10,10,0,0,1,13.7,3.7l26.3,45.4A10.1,10.1,0,0,1,459.6,1625.8Z"/></svg>