<svg xmlns="http://www.w3.org/2000/svg" viewBox="0 0 2199.3 1813"><defs><style>.a{fill:#fecc4f;}.b{fill:#231f20;}</style></defs><rect class="a" x="56.4" y="391" width="2086.4" height="1030.89" rx="168.1" transform="translate(-305.9 671.3) rotate(-30)"/><path class="b" d="M872.8,1008.3l5.6,9.7a5.9,5.9,0,0,0,8,2.1l90.2-52.6c12.1-7.1,24.8-7.9,31.8,4.2h0c7.1,12.1,2.3,26.5-9.8,33.6l-90.3,52.6a5.8,5.8,0,0,0-2,8l2.4,4c1.5,2.5,5.4,4.4,8,3l90.6-52.9c12.1-7.1,27-4,34,8h0c7.1,12.1.2,22.7-11.9,29.8l-118.3,69a23.9,23.9,0,0,1-32.7-8.6L815.7,1011a24,24,0,0,1,8.6-32.8l118.3-69a25.4,25.4,0,0,1,34.7,9.1h0c7,12.1.1,22.7-11.9,29.7l-90.7,52.9A5.4,5.4,0,0,0,872.8,1008.3Zm176.4,56.4-137,80c-12.1,7-19,17.7-12,29.7l2.9,4.9c7,12.1,19.7,11.3,31.8,4.2l41.6-24.2a5.8,5.8,0,0,1,8,2.1l15.1,26a25.3,25.3,0,0,0,34.6,9.1h0a25.2,25.2,0,0,0,9.1-34.6l-15.1-26.1a5.8,5.8,0,0,1,2.1-7.9l41.6-24.3c12.1-7.1,19-17.7,11.9-29.8l-2.8-4.9C1074,1056.9,1061.3,1057.7,1049.2,1064.7Z"/><path class="b" d="M1062.3,898.6l25.5,43.7h0l-25.5-43.6Zm75.2-43.9,25.5,43.7h0l-25.5-43.7Zm86.9,12.6a23.4,23.4,0,0,0-7,.5A23.4,23.4,0,0,1,1224.4,867.3Zm-146.2,81.8a22.7,22.7,0,0,0-3.9,5.8A24.6,24.6,0,0,1,1078.2,949.1Zm116.5-132.6a15.9,15.9,0,0,0,1.6-4.3A20.1,20.1,0,0,1,1194.7,816.5Zm0,0a22.3,22.3,0,0,1-2.4,4A26.5,26.5,0,0,0,1194.7,816.5Zm-145.4,87.4a14.7,14.7,0,0,1-4.7.2A18.3,18.3,0,0,0,1049.3,903.9Zm-4.7.2a23.4,23.4,0,0,1-4.5-.7A22.2,22.2,0,0,0,1044.6,904.1ZM1190.1,824a24,24,0,0,0,7.1-6.3,26.5,26.5,0,0,0,2.4-4,22.3,22.3,0,0,0,1.6-4.3,24.4,24.4,0,0,0-2.5-18.2l-1.4-2.3a23.9,23.9,0,0,0-32.7-8.6l-131.8,76.9a24,24,0,0,0-8.7,32.8l1.4,2.3a24.1,24.1,0,0,0,14.6,11.1,23.4,23.4,0,0,0,4.5.7,18.3,18.3,0,0,0,4.7-.2,21.8,21.8,0,0,0,9-3,4.7,4.7,0,0,1,6.4,1.7l20.8,35.6a4.7,4.7,0,0,1-1.7,6.4,22.6,22.6,0,0,0-5.6,4.5,24.6,24.6,0,0,0-3.9,5.8,22.3,22.3,0,0,0-1.6,4.3,23.5,23.5,0,0,0,2.5,18.2l1.3,2.3a24,24,0,0,0,32.8,8.6l131.8-76.9a24,24,0,0,0,8.6-32.8l-1.3-2.3a24.4,24.4,0,0,0-14.6-11.1,23.2,23.2,0,0,0-4.6-.7,23,23,0,0,0-6.9.5,24.2,24.2,0,0,0-6.7,2.7c-2.2,1.3-10,3.4-11.3,1.1l-20.8-35.6C1182.2,831,1187.9,825.3,1190.1,824ZM1163,898.4l-31.5,18.3L1106,873.1l31.5-18.4Zm150.8,99.2,1.4,2.4a24,24,0,0,1-8.6,32.8l-127.8,74.5a24,24,0,0,1-32.8-8.6l-1.3-2.3a23.9,23.9,0,0,1,8.6-32.8h0a4.6,4.6,0,0,0,1.6-6.3l-21.5-36.9a24,24,0,0,1,8.6-32.8l2.3-1.3a24,24,0,0,1,32.8,8.6l22.5,38.6a2.7,2.7,0,0,0,3.6.9l27-15.7a2.6,2.6,0,0,0,.9-3.6l-22.5-38.6a23.9,23.9,0,0,1,8.6-32.7l2.3-1.4a24,24,0,0,1,32.8,8.6l21.8,37.2c1.1,2,8.3,0,10.4-.8A23.9,23.9,0,0,1,1313.8,997.6Z"/><path class="b" d="M1776.7,596.1h0a25.4,25.4,0,0,1-9.3,34.6l-25.6,14.8,47.7,82.6a25.3,25.3,0,0,1-9.3,34.6h0a25.2,25.2,0,0,1-34.5-9.2L1626.2,546.6a25.4,25.4,0,0,1,9.3-34.6h0a25.1,25.1,0,0,1,34.5,9.3l46.5,80.3,25.6-14.8A25.4,25.4,0,0,1,1776.7,596.1Zm-55.6,144.5h0a25.2,25.2,0,0,0-34.5-9.3L1642.2,757a5.5,5.5,0,0,1-7.4-2l-77.3-134a5.3,5.3,0,0,1,1.9-7.3l38-22a25.4,25.4,0,0,0,9.3-34.6h0a25.3,25.3,0,0,0-34.6-9.2l-65.7,37.9a23.9,23.9,0,0,0-8.8,32.7L1607,808.1a24,24,0,0,0,32.7,8.7l72.2-41.6A25.3,25.3,0,0,0,1721.1,740.6Z"/><path class="b" d="M1534.2,883.3l-21-9.3a3.6,3.6,0,0,0-5.1,3l-.8,9.9c-1.4,17.3-12.6,33.8-29.3,43.4h0c-16.8,9.6-36.7,11-52.3,3.6l-8.9-4.2a3.6,3.6,0,0,0-5.2,2.9l-2.4,22.7c-1.5,14.6-15.5,26.9-31.2,27.4h0c-15.7.5-27.2-10.9-25.6-25.4l4-38.6c.8-16.3,11-32,27-41.3h0c16.1-9.3,35-10.2,49.5-2.6l13.3,6.3a3.5,3.5,0,0,0,5.1-3l1.2-14.6c.7-16.4,11-32.3,27-41.6h.1c15.9-9.2,34.6-10.2,49.1-2.8l35.6,15.8c13.4,6,17.5,21.6,9.2,34.9h0C1565.2,883.3,1547.6,889.2,1534.2,883.3ZM1407.6,622.5h0a25.4,25.4,0,0,0-9.3,34.6l19.1,33.1-11,6.4-19.2-33.1a25.2,25.2,0,0,0-34.5-9.3h0a25.4,25.4,0,0,0-9.3,34.6L1413,809.3a25.4,25.4,0,0,0,34.6,9.3h0a25.3,25.3,0,0,0,9.2-34.6l-25.1-43.6,11-6.4,25.2,43.6a25.4,25.4,0,0,0,34.6,9.3h0a25.3,25.3,0,0,0,9.2-34.6l-69.6-120.5A25.2,25.2,0,0,0,1407.6,622.5Z"/><path class="b" d="M1266.9,532.8l81.6,28.2c22.9,7.9,25.9,39.1,4.9,51.2l-3.8,2.2a28,28,0,0,1-23.3,2.2l-63.2-21.8a28.3,28.3,0,0,0-37,21.4l-12.7,65.6a28.1,28.1,0,0,1-13.6,19.1l-3.8,2.2c-21,12.1-46.5-6.1-41.9-29.9l16.4-84.7a28.4,28.4,0,0,0-18.6-32.1l-81.5-28.2c-23-7.9-25.9-39.1-4.9-51.2l3.8-2.2a28.4,28.4,0,0,1,23.3-2.3l63.2,21.8a28.2,28.2,0,0,0,37-21.3l12.7-65.6a28.1,28.1,0,0,1,13.6-19.1l3.8-2.2c21-12.1,46.5,6,41.9,29.8l-16.4,84.8A28.3,28.3,0,0,0,1266.9,532.8Z"/><rect class="b" x="1382.6" y="445.5" width="311.3" height="56.25" rx="28.1" transform="translate(-30.8 832.6) rotate(-30)"/><rect class="b" x="728.6" y="793.6" width="413.7" height="56.25" rx="28.1" transform="translate(-285.5 577.8) rotate(-30)"/><rect class="b" x="451.9" y="1332" width="471" height="56.25" rx="28.1" transform="translate(-588 525.9) rotate(-30)"/><rect class="b" x="1318.4" y="319.8" width="420.4" height="56.25" rx="28.1" transform="translate(30.8 810.9) rotate(-30)"/><rect class="b" x="180.3" y="826.8" width="940.5" height="56.25" rx="28.1" transform="translate(-340.3 439.8) rotate(-30)"/><path class="b" d="M1897.2,825,573.5,1588.9a28.2,28.2,0,0,1-38.4-10.4h0a28.2,28.2,0,0,1,10.3-38.4L1869.2,776.2a28.2,28.2,0,0,1,38.4,10.4h0A28.2,28.2,0,0,1,1897.2,825Z"/><rect class="b" x="1942.6" y="715.9" width="56.6" height="67.72" rx="28.3" transform="translate(-110.8 1085.9) rotate(-30)"/><path class="b" d="M1890.2,666.5,1718.9,369.3a28.1,28.1,0,0,1,10.4-38.4h0a28.1,28.1,0,0,1,38.4,10.3L1939,638.5a28.2,28.2,0,0,1-10.4,38.4h0A28.2,28.2,0,0,1,1890.2,666.5Z"/><path class="b" d="M508,1320.9l-61.5,35.7a30.7,30.7,0,0,1-42-11.2l-76.4-131.7a25.3,25.3,0,0,1,9.2-34.6h0a25.3,25.3,0,0,1,34.6,9.2l61.5,106a9.7,9.7,0,0,0,13.4,3.5l35.8-20.7a25.3,25.3,0,0,1,34.6,9.2h0A25.3,25.3,0,0,1,508,1320.9Z"/><path class="b" d="M580.8,1170.1h0a25.3,25.3,0,0,1-9.2,34.6l-15.1,8.7a6.5,6.5,0,0,0-2.4,8.9l38,65.4a25.3,25.3,0,0,1-9.2,34.6h0a25.3,25.3,0,0,1-34.6-9.2l-118-203.4a25.3,25.3,0,0,1,9.2-34.6h0a25.3,25.3,0,0,1,34.6,9.2l48.1,83a6.5,6.5,0,0,0,8.9,2.3l15.1-8.7A25.3,25.3,0,0,1,580.8,1170.1Z"/><path class="b" d="M736.5,1028.8l-126,74.7a23.9,23.9,0,0,1-32.8-8.4l-30.7-52a25.3,25.3,0,0,1,8.8-34.7h0a25.3,25.3,0,0,1,34.7,8.8l14.3,24.5a5.4,5.4,0,0,0,7.4,1.9l98.5-58.3a25.2,25.2,0,0,1,34.6,8.8h.1A25.4,25.4,0,0,1,736.5,1028.8Zm97.4,114.1h0a25.3,25.3,0,0,0-34.7-8.8l-98.4,58.3a5.5,5.5,0,0,1-7.4-1.9l-4.9-8.2a25.3,25.3,0,0,0-34.7-8.8h0a25.4,25.4,0,0,0-8.9,34.7l21.3,35.7a24,24,0,0,0,32.8,8.4l126.1-74.7A25.4,25.4,0,0,0,833.9,1142.9Zm-49.2-91.8h0a25.3,25.3,0,0,0-34.7-8.8l-137.3,81.3a25.4,25.4,0,0,0-8.9,34.7h0a25.3,25.3,0,0,0,34.7,8.8l137.3-81.3A25.4,25.4,0,0,0,784.7,1051.1Z"/><path class="b" d="M1369.9,876.6l-7,4.1a60.2,60.2,0,0,1-82.3-22.1h0a60.3,60.3,0,0,1,22-82.4l7-4a60.2,60.2,0,0,1,82.4,22.1h0A60.1,60.1,0,0,1,1369.9,876.6Zm-31.1-30.8,13-7.5a18,18,0,0,0,6.6-24.7h0a18.1,18.1,0,0,0-24.6-6.6l-13.1,7.6a18.1,18.1,0,0,0-6.6,24.6h0A18.1,18.1,0,0,0,1338.8,845.8Z"/><rect class="b" x="1225.2" y="726.5" width="125.8" height="45" rx="22.5" transform="translate(-201.9 744.4) rotate(-30)"/><rect class="b" x="1226.8" y="689.3" width="69.9" height="39.37" rx="19.7" transform="translate(-185.5 725.9) rotate(-30)"/></svg>