<svg xmlns="http://www.w3.org/2000/svg" viewBox="0 0 3057 2302.5"><defs><style>.a{fill:#fecc4f;}.b{fill:#231f20;}.c{fill:#fff200;}</style></defs><rect class="a" x="-12.7" y="640.7" width="3082.5" height="1021.07" rx="168.1" transform="translate(-370.8 918.5) rotate(-30)"/><path class="b" d="M2908,705.7,1820.3,1333.3a28.1,28.1,0,0,1-38.4-10.4h0a28.1,28.1,0,0,1,10.3-38.4L2879.9,656.9a28.1,28.1,0,0,1,38.4,10.4h0A28.1,28.1,0,0,1,2908,705.7Z"/><path class="b" d="M1394,1579.8,503.7,2093.5a28.1,28.1,0,0,1-38.4-10.4h0a28,28,0,0,1,10.3-38.4L1366,1531a28.2,28.2,0,0,1,38.4,10.4h0A28.2,28.2,0,0,1,1394,1579.8Z"/><path class="b" d="M714.5,1838.4,445.8,1993.2a28.2,28.2,0,0,1-38.4-10.3h0a28.2,28.2,0,0,1,10.3-38.5l268.8-154.8a28.2,28.2,0,0,1,38.4,10.4h0A28.2,28.2,0,0,1,714.5,1838.4Z"/><path class="b" d="M1158.3,1091.8,503,1469.8a28.1,28.1,0,0,1-38.4-10.3h0a28.1,28.1,0,0,1,10.4-38.4l655.3-378a28.1,28.1,0,0,1,38.4,10.3h0A28.1,28.1,0,0,1,1158.3,1091.8Z"/><path class="b" d="M2637.8,237.7,1507.5,889.9a28.1,28.1,0,0,1-38.4-10.4h0a28.1,28.1,0,0,1,10.3-38.4L2609.7,188.9a28.1,28.1,0,0,1,38.4,10.4h0A28.1,28.1,0,0,1,2637.8,237.7Z"/><rect class="b" x="2706.8" y="268.2" width="56.6" height="275.87" rx="28.3" transform="translate(163.3 1422) rotate(-30)"/><rect class="b" x="2815.3" y="560.3" width="56.6" height="67.72" rx="28.3" transform="translate(83.9 1501.4) rotate(-30)"/><path class="b" d="M1379.7,964.8l81.6,28.2c22.9,7.9,25.9,39.1,4.9,51.2l-3.8,2.2a28.7,28.7,0,0,1-23.4,2.3l-63.1-21.8a28.2,28.2,0,0,0-37,21.3l-12.7,65.6a28.6,28.6,0,0,1-13.7,19.1l-3.8,2.2c-20.9,12.1-46.5-6.1-41.9-29.9l16.4-84.7a28.3,28.3,0,0,0-18.5-32.1l-81.6-28.2c-22.9-7.9-25.9-39.1-4.9-51.2l3.8-2.2a28.6,28.6,0,0,1,23.4-2.3l63.1,21.8a28.2,28.2,0,0,0,37-21.3l12.7-65.6a28.1,28.1,0,0,1,13.6-19.1l3.8-2.2c21-12.1,46.5,6.1,41.9,29.9l-16.3,84.7A28.3,28.3,0,0,0,1379.7,964.8Z"/><path class="b" d="M1487.2,1125.1h0a8,8,0,0,1,2.9-10.9l48.2-27.8a22.6,22.6,0,0,0,8.3-30.8h0a22.6,22.6,0,0,0-30.8-8.2l-213.5,123.3a22.5,22.5,0,0,0-8.3,30.7h0a22.6,22.6,0,0,0,30.8,8.3l27.7-16a8,8,0,0,1,10.9,2.9h0a8,8,0,0,1-2.9,10.9l-17.2,9.9a57.2,57.2,0,0,0-21,78.1h0a57.2,57.2,0,0,0,78.1,20.9l192.5-111.1a57.2,57.2,0,0,0,21-78.1h0a57.2,57.2,0,0,0-78.1-20.9l-37.7,21.7A8,8,0,0,1,1487.2,1125.1Zm-81.9,38.1,32-18.5a8,8,0,0,1,10.9,2.9h0a7.9,7.9,0,0,1-2.9,10.9l-32,18.5a8,8,0,0,1-10.9-2.9h0A8,8,0,0,1,1405.3,1163.2Zm-43.1,95.3,20.8-12a8,8,0,0,1,10.9,2.9l4.1,7.2a8,8,0,0,1-2.9,10.9l-20.8,12a8,8,0,0,1-10.9-2.9l-4.2-7.2A7.9,7.9,0,0,1,1362.2,1258.5Zm73.6-42.5,32-18.5a8,8,0,0,1,10.9,2.9l4.2,7.2a8,8,0,0,1-2.9,10.9l-32.1,18.5a8,8,0,0,1-10.9-2.9l-4.2-7.2A7.9,7.9,0,0,1,1435.8,1216Zm138.2-51.8-41.2,23.8a8,8,0,0,1-10.9-2.9l-4.2-7.2a8,8,0,0,1,2.9-10.9l41.3-23.8a8,8,0,0,1,10.9,2.9l4.2,7.2A7.9,7.9,0,0,1,1574,1164.2Z"/><rect class="b" x="1418.2" y="1275.1" width="191.3" height="45" rx="22.5" transform="translate(-446 930.8) rotate(-30)"/><path class="b" d="M1675,1278.1h0a22.5,22.5,0,0,1-8.2,30.7l-78.3,45.2a10.5,10.5,0,0,0-3.8,14.3l39.4,68.2a42.6,42.6,0,0,1-15.7,58.3l-21.4,12.4a28.1,28.1,0,0,1-38.4-10.3h0a28.1,28.1,0,0,1,10.3-38.4l5.5-3.2a10.5,10.5,0,0,0,3.8-14.3l-27.4-47.4a10.3,10.3,0,0,0-14.2-3.8l-73.4,42.3a22.3,22.3,0,0,1-30.7-8.2h0a22.4,22.4,0,0,1,8.2-30.7l213.6-123.3A22.4,22.4,0,0,1,1675,1278.1Z"/><path class="b" d="M1271.8,1397.9a10.5,10.5,0,0,1-7.6-13.6c21.4-66.9,23.5-82.1,9.4-92.8-8.1-6.1-19.3-6.6-28.7-1.2L1120,1362.4c-9.2,5.3-14.4,15.2-13.4,25,2,18,18.6,22.7,51.5,32l28.9,7.8a10.4,10.4,0,0,1,7.4,13.5c-7.1,21.7-6.4,59.1-14.1,81.6a22.6,22.6,0,0,0,15.5,29.5h0a26.7,26.7,0,0,0,31.7-16.9c5.8-17,5.7-56.3,14.4-82.5a12.3,12.3,0,0,1,14.4-8c25.1,6,57.2,26.1,73.8,30a26.7,26.7,0,0,0,31-18h0c3.9-12.9-3.6-25.7-16.8-28.8C1322.7,1422.6,1292.5,1402.8,1271.8,1397.9Zm-56.6-10.1-37.5-9.8,49.5-28.6C1223.6,1361.2,1219.6,1374.1,1215.2,1387.8Z"/><path class="b" d="M1101.3,1452.4l-10.3,9.9,54.7,94.7a28.1,28.1,0,0,1-10.3,38.4l-37.7,21.7a28.1,28.1,0,0,1-38.4-10.2h0a28.3,28.3,0,0,1,10.3-38.5l15.9-9.1a2.7,2.7,0,0,0,.9-3.7l-33-57.1-5.3,5.1a25.3,25.3,0,0,1-35.8-.7h0a25.3,25.3,0,0,1,.7-35.8l10.4-10a7.1,7.1,0,0,0,1.2-8.6l-21.4-37-18.5-32a6.9,6.9,0,0,0-9.6-2.6l-4.7,2.7a25.3,25.3,0,0,1-34.6-9.2h0a25.3,25.3,0,0,1,9.2-34.6l4.8-2.8a7,7,0,0,0,2.6-9.6l-6.5-11.3a25.2,25.2,0,0,1,9.2-34.5h0a25.3,25.3,0,0,1,34.6,9.2l6.5,11.3a7.1,7.1,0,0,0,9.6,2.6h0a25.4,25.4,0,0,1,34.6,9.3h0a25.2,25.2,0,0,1-9.2,34.5h0a7,7,0,0,0-2.6,9.6l16.7,29,18.8,32.5a1.3,1.3,0,0,0,2.1.3h0a25.4,25.4,0,0,1,35.8.7h0A25.2,25.2,0,0,1,1101.3,1452.4Z"/><path class="b" d="M1071.6,1330.7a19.5,19.5,0,0,1-.7-18.3c4.1-8.4-1.8-38.8-16-63.2l-2.9-5.1a19.6,19.6,0,0,1,7.2-26.6l85.3-49.3a19.5,19.5,0,0,1,26.7,7.2l25.3,43.9a6.9,6.9,0,0,0,9.4,2.5l5.9-3.4a25.4,25.4,0,0,1,34.6,9.3h0a25.2,25.2,0,0,1-9.2,34.5l-34,19.6a19.6,19.6,0,0,1-26.7-7.1l-19-33a19.6,19.6,0,0,0-26.7-7.1l-7.5,4.3a19.6,19.6,0,0,0-9.1,21.7c7.9,31.4,7.4,68.8-3,83.4a19.5,19.5,0,0,1-32.8-1.5Z"/><polygon class="c" points="355.7 1675.5 358.2 1679.7 351.9 1683.4 355.7 1675.5"/><polygon class="c" points="355.7 1675.5 358.2 1679.7 351.9 1683.4 355.7 1675.5"/><polygon class="c" points="355.7 1675.5 358.2 1679.7 351.9 1683.4 355.7 1675.5"/><path class="b" d="M680.5,1743.8a26.5,26.5,0,0,1-9.5,9.6,25.3,25.3,0,0,1-25,.2l-17.1-9.5a7.8,7.8,0,0,0-9.9,1.8,22.3,22.3,0,0,1-2.6,2.7l-107.7,98.5c-13.1,11.6-34.8,7.2-41.2-11.8-3.1-9.4.4-19.6,7.8-26.1h0a1.3,1.3,0,0,0,.3-1.3l-13.5-33.8a8.4,8.4,0,0,0-3.9-4.2l-60.8-29.4a1.9,1.9,0,0,0-2.5,2.7l61,105.8a25.2,25.2,0,0,1-11.5,35.7c-12,5.5-26.3.1-32.9-11.4L361.1,1786a2,2,0,0,0-3.6,1.2l2.8,38.2a25.3,25.3,0,1,1-50.5,3.7l-8.2-112.4a2.6,2.6,0,0,0-3.9-2.1l-10.9,6.3c-12.4,7.2-29.2,3.3-36-9.3a24.6,24.6,0,0,1-2.1-18.5,25,25,0,0,1,11.7-15.4l24.9-14.3a4.5,4.5,0,0,0,1.6-6L259,1609.2a4.3,4.3,0,0,0-5.9-1.6l-9.2,5.3c-12.4,7.2-29.1,3.3-36-9.3a25.3,25.3,0,0,1,9.7-33.9l66.8-38.6c11.7-6.8,27.1-4,34.6,7.2a25.4,25.4,0,0,1-8.4,36.1l-6.1,3.5a4.4,4.4,0,0,0-1.6,6l27.8,48.2a4.4,4.4,0,0,0,6,1.6l19.8-11.5c11.7-6.8,27.1-3.9,34.6,7.3a25.3,25.3,0,0,1-8.4,36l-6.7,3.9a2.6,2.6,0,0,0,.2,4.6l48.7,23.5a3.4,3.4,0,0,0,4.7-4.3l-72.5-180.3a25.3,25.3,0,0,1,45.7-21.4,28.7,28.7,0,0,1,1.8,4l106.9,266a8,8,0,0,0,12.7,2.9l45.3-41.5a8,8,0,0,0-1.5-12.8l-27.8-15.5a25.4,25.4,0,0,1-9.8-34.4,25.8,25.8,0,0,1,9.5-9.6,25.3,25.3,0,0,1,25-.1l105.7,58.9A25.3,25.3,0,0,1,680.5,1743.8Z"/><rect class="b" x="1437.4" y="1466.5" width="85" height="45" rx="22.5" transform="translate(-388.1 2447) rotate(-72.3)"/><rect class="b" x="1662.7" y="1327.9" width="45" height="84.98" rx="22.5" transform="translate(-13.4 2724.1) rotate(-77.7)"/><path class="b" d="M934.9,1707.9l-52.3,30.2a25.2,25.2,0,0,1-34.5-9.3h0a25.3,25.3,0,0,1,9.2-34.6l49.4-28.5-86.2-149.3a11.9,11.9,0,0,0-16.3-4.3l-146,84.2a25.2,25.2,0,0,1-34.5-9.2h0a25.3,25.3,0,0,1,9.2-34.6l163-94.1a42.9,42.9,0,0,1,58.6,15.7l97.7,169.3A47.2,47.2,0,0,1,934.9,1707.9Z"/><path class="b" d="M785.3,1796h0a25.3,25.3,0,0,1-29.8-19.8L689.7,1446a25.3,25.3,0,0,1,19.7-29.9h0a25.4,25.4,0,0,1,29.9,19.8l65.8,330.2A25.4,25.4,0,0,1,785.3,1796Z"/><rect class="b" x="832.7" y="1355.8" width="50.6" height="141.32" rx="25.3" transform="translate(-802.2 1547.4) rotate(-63.1)"/><path class="b" d="M821.4,1346.9l11.5-18.2a10.1,10.1,0,0,1,13.9-3.1l37.1,22.8a10,10,0,0,1,3.1,13.8l-11.5,18.2a9.9,9.9,0,0,1-13.8,3.1l-37.2-22.8A10.1,10.1,0,0,1,821.4,1346.9Z"/><path class="b" d="M847.5,1299.4l11.5-18.2a10.1,10.1,0,0,1,13.9-3.1l37.1,22.8a10,10,0,0,1,3.1,13.8l-11.5,18.2a9.9,9.9,0,0,1-13.8,3.1l-37.2-22.8A10.1,10.1,0,0,1,847.5,1299.4Z"/><path class="b" d="M1816.6,1200.6a92.3,92.3,0,0,1-75.1,7.8c-22.2-7.3-40.4-23.3-52-43.5L1566,951.1a25.2,25.2,0,0,1,9.3-34.5h0a25.3,25.3,0,0,1,34.6,9.2l124,214.8a42.7,42.7,0,0,0,16.5,16.7,42,42,0,0,0,47-4.8c16.3-13.6,33-41.1,53.4-113.5a25.3,25.3,0,0,1,28.8-18.1h.1c14.5,2.6,24,17.1,20,31.3-23.3,83.9-45.1,118.5-69.8,139.2A101.5,101.5,0,0,1,1816.6,1200.6Z"/><path class="b" d="M2352.1,891.5a92.6,92.6,0,0,1-75.2,7.7c-22.2-7.2-40.4-23.2-52-43.4L2101.4,642a25.4,25.4,0,0,1,9.3-34.6h0a25.4,25.4,0,0,1,34.6,9.3l124,214.8a42.7,42.7,0,0,0,16.5,16.7,42,42,0,0,0,47-4.8c16.3-13.6,33-41.1,53.4-113.5a25.5,25.5,0,0,1,28.8-18.2h.1c14.5,2.5,24,17.1,20,31.3-23.3,83.9-45.1,118.5-69.8,139.1A98.4,98.4,0,0,1,2352.1,891.5Z"/><path class="b" d="M2057.6,915.5,2038.2,882a14.3,14.3,0,0,1,5.3-19.5l63.3-36.6a25.4,25.4,0,0,0,9.3-34.6h0a25.4,25.4,0,0,0-34.6-9.3l-63.3,36.6a14.4,14.4,0,0,1-19.6-5.2l-4.7-8.2a14.3,14.3,0,0,1,5.3-19.5l63.3-36.6a25.4,25.4,0,0,0,9.3-34.6h0a25.3,25.3,0,0,0-34.6-9.2l-63.4,36.5a14.2,14.2,0,0,1-19.5-5.2l-4.2-7.2a25.4,25.4,0,0,0-34.6-9.3h0a25.3,25.3,0,0,0-9.2,34.6l4.1,7.2a14.4,14.4,0,0,1-5.2,19.6l-60.5,34.9a25.3,25.3,0,0,0-9.2,34.6h0a25.2,25.2,0,0,0,34.5,9.2l60.5-34.9a14.4,14.4,0,0,1,19.6,5.2l4.7,8.2a14.3,14.3,0,0,1-5.3,19.5l-60.4,35a25.1,25.1,0,0,0-9.3,34.5h0a25.4,25.4,0,0,0,34.6,9.3l60.4-34.9a14.4,14.4,0,0,1,19.6,5.2l11.7,20.2a165.9,165.9,0,0,0-41,13.8c-45.3,23.3-52.2,70.9-35.9,105.9s57.1,60.1,103.7,40.6a45.2,45.2,0,0,0,4.3-1.9l1.2-.6c30.3-17.5,48.1-40.5,53-68.3a86.8,86.8,0,0,0,.8-25.3,14.4,14.4,0,0,1,15.3-15.9l77.7,5.3a25.3,25.3,0,0,0,26.9-23.6h0a25.3,25.3,0,0,0-23.6-26.9l-119.5-8A14.1,14.1,0,0,1,2057.6,915.5Zm-16.1,92.9c-2.2,12.1-11.5,23-27.6,32.4l-.5.3c-24.9,10.4-36.3-10.8-38.3-15.2s-10.6-25.9,11.3-38.5l1.9-1a107.8,107.8,0,0,1,30.4-9.9,19.3,19.3,0,0,1,21.9,14.1A42.8,42.8,0,0,1,2041.5,1008.4Z"/><path class="b" d="M2626.4,406.2a25.1,25.1,0,0,1,2.5,19.2,24.8,24.8,0,0,1-11.8,15.4l-139.9,80.8a6.6,6.6,0,0,0-3.2,7.2l53.2,240.7a25.3,25.3,0,0,1-49.4,11l-48.8-221a6.7,6.7,0,0,0-9.9-4.4L2378,578.8a25.2,25.2,0,0,1-34.5-9.2,25.2,25.2,0,0,1,9.2-34.6l58.6-33.8a6.9,6.9,0,0,0,3.2-7.3l-8.4-38a25.3,25.3,0,0,1,46.6-18.1,28.4,28.4,0,0,1,2.8,7.2l4,18.3a6.7,6.7,0,0,0,9.9,4.3l122.4-70.7A25.4,25.4,0,0,1,2626.4,406.2Zm128.2,221.9h0a25.2,25.2,0,0,0-34.5-9.3l-99.6,57.5a3.9,3.9,0,0,1-5.8-2.9l-1.7-26.2a25.2,25.2,0,0,0-28.3-21.9h0a25.5,25.5,0,0,0-21.9,28.3l3.4,40c3.5,21.5,6.1,28.2,18.6,36.3s30.1,8.1,43.6.3l117-67.6A25.2,25.2,0,0,0,2754.6,628.1Zm-220.3-48.8h0a25.4,25.4,0,0,0,34.6,9.3l68.4-39.5a3.9,3.9,0,0,1,5.8,2.9l1.5,13.1a25.3,25.3,0,0,0,28.3,21.8h0a25.2,25.2,0,0,0,21.9-28.3l-2.6-20.1c-3.4-27.1-6.7-35-19.3-43.1s-30-8-43.5-.2l-85.8,49.5A25.4,25.4,0,0,0,2534.3,579.3Z"/></svg>