<svg xmlns="http://www.w3.org/2000/svg" viewBox="0 0 2862.2 2190"><defs><style>.a{fill:#fecc4f;}.b{fill:#231f20;}</style></defs><rect class="a" x="2.3" y="584.5" width="2857.5" height="1021.07" rx="168.1" transform="translate(-355.8 862.3) rotate(-30)"/><rect class="b" x="525.5" y="1749.7" width="217" height="56.61" rx="28.3" transform="matrix(0.87, -0.5, 0.5, 0.87, -804.07, 555.2)"/><rect class="b" x="1379.9" y="505.7" width="996.5" height="56.61" rx="28.3" transform="translate(-15.4 1010.6) rotate(-30)"/><rect class="b" x="247.9" y="1169.4" width="959.6" height="56.61" rx="28.3" transform="translate(-501.4 524.3) rotate(-30)"/><rect class="b" x="572.4" y="1195.7" width="672.5" height="56.61" rx="28.3" transform="translate(-490.3 618.3) rotate(-30)"/><rect class="b" x="1443.1" y="628.8" width="894.9" height="56.61" rx="28.3" transform="translate(-75.3 1033.3) rotate(-30)"/><rect class="b" x="441.3" y="1325.3" width="2307" height="56.61" rx="28.3" transform="matrix(0.87, -0.5, 0.5, 0.87, -463.15, 978.72)"/><path class="b" d="M1078,1542.8l-119.5,69a23.3,23.3,0,0,1-31.9-8.5L819.3,1417.4a23.4,23.4,0,0,1,8.6-31.9l119.5-69a23.4,23.4,0,0,1,31.9,8.6l107.3,185.8A23.4,23.4,0,0,1,1078,1542.8Zm-98.8-8.3,21.5-12.4a23.2,23.2,0,0,0,8.5-31.9l-50.7-87.8a23.2,23.2,0,0,0-31.8-8.5l-21.5,12.4a23.3,23.3,0,0,0-8.6,31.8l50.7,87.9A23.5,23.5,0,0,0,979.2,1534.5Z"/><path class="b" d="M1488.9,1305.6l-119.5,69a23.5,23.5,0,0,1-31.9-8.5l-107.3-185.9a23.4,23.4,0,0,1,8.6-31.9l119.5-69a23.4,23.4,0,0,1,31.9,8.5l107.3,185.9A23.4,23.4,0,0,1,1488.9,1305.6Zm-98.8-8.3,21.5-12.4a23.4,23.4,0,0,0,8.6-31.9l-50.7-87.8a23.4,23.4,0,0,0-31.9-8.6l-21.5,12.4a23.3,23.3,0,0,0-8.5,31.9l50.7,87.8A23.3,23.3,0,0,0,1390.1,1297.3Z"/><path class="b" d="M803.1,1432.6a28,28,0,0,1,1.3,25.6c-2.3,5.4-7.2,10.3-8.2,10.8l-21.4,12.4a23.2,23.2,0,0,0-8.5,31.9l50.6,87.8.7,1,25.2,43.7a28.3,28.3,0,0,1-10.4,38.7l-4.3,2.5a23.4,23.4,0,0,1-31.9-8.6L688.9,1492.6a23.2,23.2,0,0,1,5.6-29.9l69.9-40.4A28.4,28.4,0,0,1,803.1,1432.6Z"/><rect class="b" x="2368" y="353.7" width="56.6" height="275.87" rx="28.3" transform="translate(75.2 1264) rotate(-30)"/><rect class="b" x="2476.6" y="645.8" width="56.6" height="67.72" rx="28.3" transform="translate(-4.2 1343.5) rotate(-30)"/><path class="b" d="M1357.2,867.7l81.6,28.2c22.9,7.9,25.9,39.1,4.9,51.2l-3.8,2.2a28.2,28.2,0,0,1-23.4,2.2l-63.1-21.8a28.3,28.3,0,0,0-37,21.4l-12.7,65.6a28.4,28.4,0,0,1-13.6,19.1l-3.8,2.2c-21,12.1-46.6-6.1-42-29.9l16.4-84.7a28.3,28.3,0,0,0-18.5-32.1l-81.6-28.2c-22.9-7.9-25.9-39.1-4.9-51.2l3.8-2.2a28.6,28.6,0,0,1,23.4-2.3l63.1,21.8a28.3,28.3,0,0,0,37-21.3l12.7-65.6a28.2,28.2,0,0,1,13.6-19.1l3.8-2.2c21-12.1,46.5,6,41.9,29.8l-16.3,84.8A28.3,28.3,0,0,0,1357.2,867.7Z"/><path class="b" d="M1163.5,1493l-22.4,12.9a28.1,28.1,0,0,1-38.4-10.3h0a28.2,28.2,0,0,1,10.3-38.4h0c11.5-6.7,5.7-15.8-1-27.4l-78.5-135.9a24.2,24.2,0,0,1,8.9-33l121.2-70a24.2,24.2,0,0,1,33,8.9l104.8,181.6a28.1,28.1,0,0,1-10.3,38.5h0a28.2,28.2,0,0,1-38.4-10.3l-76.7-133a24.1,24.1,0,0,0-33-8.8l-14,8c-11.6,6.7-25.3,27.1-18.6,38.7l63.3,109.7C1188.8,1450.2,1189.6,1477.9,1163.5,1493Z"/><path class="b" d="M1677.1,1197l-121.8,70.3a15.9,15.9,0,0,1-21.8-5.9l-114.7-198.6a16,16,0,0,1,5.8-21.8l121.8-70.3a28,28,0,0,1,38.4,10.3h0a28.1,28.1,0,0,1-10.3,38.4l-69.5,40.1a16.1,16.1,0,0,0-5.8,21.9l58.4,101.2a16,16,0,0,0,21.8,5.8l69.5-40.1a28.1,28.1,0,0,1,38.5,10.3h0A28.2,28.2,0,0,1,1677.1,1197Z"/><path class="b" d="M1865.6,1088.1l-119.5,69a23.3,23.3,0,0,1-31.9-8.5L1606.9,962.7a23.4,23.4,0,0,1,8.5-31.9l119.6-69a23.4,23.4,0,0,1,31.9,8.6l107.3,185.8A23.4,23.4,0,0,1,1865.6,1088.1Zm-98.8-8.3,21.5-12.4a23.4,23.4,0,0,0,8.5-31.9l-50.7-87.8a23.2,23.2,0,0,0-31.9-8.5l-21.4,12.3a23.4,23.4,0,0,0-8.6,31.9l50.7,87.8A23.4,23.4,0,0,0,1766.8,1079.8Z"/><path class="b" d="M1886.6,774.3l-63.5,36.6c-24,13.9-33.2,42.9-20.6,64.8l84.9,146.9c12.6,22,42.3,28.5,66.3,14.6l64.9-37.4c18.6-10.7,27.2-31.3,28-50.5.8-23.7-9.8-43.8-29.4-56.7-8.2-5.4-17.3-9.5-26.5-13.2-6.7-2.8-19.7-6.5-18-16,4.5-25.8,10.2-49-6.8-70.7S1913,759,1886.6,774.3Zm-21.8,69.9,23.5-13.6c16-9.2,35.5-1.4,38.5,15.3h0c2,10.6-3.6,21.7-13.7,27.6L1889.6,887c-8.2,4.7-18.2,2.5-22.5-4.9l-9.2-16C1853.6,858.7,1856.7,848.9,1864.8,844.2Zm59.4,137.4-20.6-35.7c-4.3-7.4-1.2-17.2,6.9-21.9l20.1-11.6c10.5-6.1,23.3-5.1,31.5,2.4l2.2,1.2c13.5,7.4,21.6,21.7,19.5,37.1-1.1,7.7-4.5,14.6-10.8,18.2l-26.3,15.3C1938.5,991.3,1928.5,989.1,1924.2,981.6Z"/><path class="b" d="M2179.9,756.9l54.4,94.2a11.5,11.5,0,0,0-1.2-2.5l-51.7-89.4A11.4,11.4,0,0,0,2179.9,756.9ZM2030,819.6l-2.2,1.5,85.9-49.6,1.4-1Zm-9.3,30.5a6.4,6.4,0,0,0,.8,1.4l51.6,89.5a11.4,11.4,0,0,0,1.8,2.5l-54.8-94.8Z"/><path class="b" d="M2093.9,654.2l-119.5,69a23.3,23.3,0,0,0-9.8,29.3l24.5,42.5a22.9,22.9,0,0,0,14.1,10.8,23.3,23.3,0,0,0,17.8-2.2l8.6-5a22.9,22.9,0,0,0,10.9-14.5,22.3,22.3,0,0,0-.5-13.5l-.7-1.8h0c-4.9-10.8,1.8-19.2,12.2-25.2l21.5-12.4c11.2-6.5,25.6-2.3,32.1,8.9l12.4,21.5a8.3,8.3,0,0,1-2.4,8.9,7.1,7.1,0,0,1-1.4,1l-85.9,49.6a23.3,23.3,0,0,0-7.7,27.6l54.8,94.8a23.3,23.3,0,0,0,30.1,6.1l56.3-32.5a9.2,9.2,0,0,0,3.2-3.3l12.5-23.7a8.8,8.8,0,0,1,3.2-3.4,8.5,8.5,0,0,1,11.6,3.1,8.4,8.4,0,0,0,11.4,3.1l21.4-12.4a23.1,23.1,0,0,0,9.7-29.4l-110-190.7A23.4,23.4,0,0,0,2093.9,654.2ZM2146.4,847l-13.1,24.6c-7,13.2-31.1,17.3-38.8,4.4l-3.3-5.8a23.5,23.5,0,0,1-2.1-4.6c-3.2-10.2,5.8-24.5,15.5-30.1l21.4-12.4c.1-.1.2-.1.2-.2,12.7-7,27.4,6.4,22.1,19.9A38.9,38.9,0,0,1,2146.4,847Z"/><path class="b" d="M2306.5,833l-22.3,13a28.3,28.3,0,0,1-38.5-10.3h0a28.2,28.2,0,0,1,10.3-38.4h0c11.5-6.7,5.7-15.8-.9-27.4l-78.5-136a24,24,0,0,1,8.8-32.9l121.2-70a24.2,24.2,0,0,1,33,8.8l104.9,181.7a28.2,28.2,0,0,1-10.3,38.4h0a28.1,28.1,0,0,1-38.5-10.3L2319,616.7a24.2,24.2,0,0,0-33-8.9l-14,8.1c-11.6,6.7-25.3,27.1-18.6,38.6l63.3,109.7C2331.8,790.3,2332.6,818,2306.5,833Z"/><path class="b" d="M504.8,1422.8,423.1,1470c-29.4,17-50.8,48.2-43.7,85.4a90.3,90.3,0,0,0,11.3,29.7,91.7,91.7,0,0,0,20,24.6c17.8,15.4,38.4,19.6,55.4,18.8a81.2,81.2,0,0,0,15.6-1.9c.7-.2,1.3.5,1,1.3a122.2,122.2,0,0,0-5.8,16.4c-8.2,28.8-6.5,58.4,4.8,88.5,6,16,25.4,22.5,40.2,14a27.9,27.9,0,0,0,12.4-15,29.9,29.9,0,0,0-.2-19.6c-6.8-18.3-6.6-53.1-1.9-69.9,4-14.8,8.2-29.6,13.4-42.5a11.9,11.9,0,0,1,5-5.8l19.5-11.3a10.1,10.1,0,0,1,13.7,3.7l42.7,74.1a28.1,28.1,0,0,0,48.7-28.2L563.3,1438.5A42.8,42.8,0,0,0,504.8,1422.8Zm-35.9,148.9a22.7,22.7,0,0,1-15.8-1.1c-4.7-2.1-9.5-6.3-13.7-13.6-1.9-3.3-6-10.4-4.7-18.5h0c1.1-6.3,5.4-13.3,16.5-19.7l60.7-35a10.9,10.9,0,0,1,14.9,4l18,31.2a10.8,10.8,0,0,1,1,8.4Z"/></svg>