<svg xmlns="http://www.w3.org/2000/svg" viewBox="0 0 3057 2302.5"><defs><style>.a{fill:#fecc4f;}.b{fill:#231f20;}</style></defs><rect class="a" x="-12.7" y="640.7" width="3082.5" height="1021.07" rx="168.1" transform="translate(-370.8 918.5) rotate(-30)"/><path class="b" d="M2548.2,815.1l-119.5,69a23.3,23.3,0,0,1-31.9-8.5L2289.5,689.7a23.4,23.4,0,0,1,8.5-31.9l119.5-69a23.4,23.4,0,0,1,31.9,8.6l107.3,185.8A23.2,23.2,0,0,1,2548.2,815.1Zm-98.8-8.3,21.5-12.4a23.4,23.4,0,0,0,8.5-31.9l-50.7-87.8a23.2,23.2,0,0,0-31.9-8.5l-21.4,12.3a23.4,23.4,0,0,0-8.6,31.9l50.7,87.8A23.4,23.4,0,0,0,2449.4,806.8Z"/><path class="b" d="M603.8,1557.4l-119.5,69a23.4,23.4,0,0,0-8.6,31.9l84.8,146.9a23.4,23.4,0,0,0,31.9,8.5l119.5-69a23.4,23.4,0,0,0,8.6-31.9l-84.8-146.9A23.5,23.5,0,0,0,603.8,1557.4Zm39.3,134.7a23.2,23.2,0,0,1-8.5,31.9l-21.4,12.4a23.4,23.4,0,0,1-31.9-8.5L553.1,1679a23.3,23.3,0,0,1,8.5-31.9l21.4-12.4a23.4,23.4,0,0,1,31.9,8.6Z"/><rect class="b" x="2706.5" y="277.2" width="56.6" height="398.58" rx="28.3" transform="translate(128.2 1431.4) rotate(-30)"/><rect class="b" x="2848.7" y="688.9" width="56.6" height="67.72" rx="28.3" transform="matrix(0.87, -0.5, 0.5, 0.87, 24.14, 1535.54)"/><rect class="b" x="2502.3" y="888.8" width="56.6" height="67.72" rx="28.3" transform="translate(-122.3 1389.1) rotate(-30)"/><path class="b" d="M1546.3,972.1l-51,4.2a15.7,15.7,0,0,1-17-16.6l.8-14.4a15.8,15.8,0,0,1,18.9-14.5l50.1,10.2a15.8,15.8,0,0,1,12.6,16.4h0A15.7,15.7,0,0,1,1546.3,972.1Z"/><path class="b" d="M1547.4,865.7l-488.6,282.2a28.1,28.1,0,0,1-38.4-10.3h0a28.2,28.2,0,0,1,10.3-38.4L1519.3,817a28.1,28.1,0,0,1,38.4,10.2h0A28.1,28.1,0,0,1,1547.4,865.7Z"/><path class="b" d="M2783.6,808.8l-170.3,98.5a28.2,28.2,0,0,1-38.5-10.3h0a28.2,28.2,0,0,1,10.3-38.4l170.4-98.5a28.1,28.1,0,0,1,38.4,10.3h0A28.2,28.2,0,0,1,2783.6,808.8Z"/><path class="b" d="M948.9,1737.9,465.2,2017.2a28.1,28.1,0,0,1-38.4-10.3h0a28,28,0,0,1,10.3-38.4l483.7-279.3a28.2,28.2,0,0,1,38.4,10.3h0A28.1,28.1,0,0,1,948.9,1737.9Z"/><path class="b" d="M2476,986.6,521.5,2114.8a28.1,28.1,0,0,1-38.4-10.3h0a28,28,0,0,1,10.3-38.4L2447.9,937.8a28.2,28.2,0,0,1,38.4,10.4h0A28.2,28.2,0,0,1,2476,986.6Z"/><path class="b" d="M549.3,1557.8l-20.8-5.1a10,10,0,0,0-11.9,6.5l-7.6,22.3a22.5,22.5,0,0,1-28.6,14h0a22.5,22.5,0,0,1-14-28.5l17.2-50.5a22.4,22.4,0,0,1,26.6-14.6l49.8,12.2a22.4,22.4,0,0,1,16.5,27.2h0A22.5,22.5,0,0,1,549.3,1557.8Z"/><path class="b" d="M754.2,1477.9l65,112.6a23.3,23.3,0,0,0,31.9,8.5l17.3-10a23.4,23.4,0,0,1,31.9,8.6l5,8.5a23.4,23.4,0,0,1-8.6,31.9l-124.3,71.8a23.3,23.3,0,0,1-31.8-8.6l-5-8.6a23.2,23.2,0,0,1,8.6-31.8l17.4-10.1a23.3,23.3,0,0,0,8.5-31.9l-65-112.6a23.2,23.2,0,0,0-31.8-8.5l-17.5,10a23.3,23.3,0,0,1-31.9-8.5l-5-8.6a23.4,23.4,0,0,1,8.6-31.9l124.3-71.8a23.3,23.3,0,0,1,31.8,8.6l5,8.6a23.3,23.3,0,0,1-8.5,31.9l-17.4,10A23.4,23.4,0,0,0,754.2,1477.9Z"/><path class="b" d="M858.1,1239.6a28.1,28.1,0,0,1,2.3,20.4,28.4,28.4,0,0,1-13.1,17.2L392.6,1539.7a28,28,0,0,0-10.2,38.3l140.1,242.7c7.4,12.8,4.6,29.5-7.3,38a28.1,28.1,0,0,1-40.8-8.8L333.6,1606.1a28,28,0,0,0-38.2-10.3l-54,31.2c-13.9,8-32.5,3.6-40.1-10.5a28.2,28.2,0,0,1,10.8-37.6L818,1229.1C831.9,1221.1,850.6,1225.5,858.1,1239.6Z"/><path class="b" d="M916.1,1205.1l94.4,163.5a28.2,28.2,0,0,1-10.4,38.6L938.2,1443a28.3,28.3,0,0,0-10.4,38.7L1030.2,1659a28.2,28.2,0,0,0,38.6,10.3l111-64a28.3,28.3,0,0,0,10.4-38.7l-225-389.8a28.4,28.4,0,0,0-38.7-10.3h0A28.3,28.3,0,0,0,916.1,1205.1Zm186.4,379.4-12.9,7.5a28.3,28.3,0,0,1-38.7-10.4l-45.8-79.2a28.4,28.4,0,0,1,10.4-38.7l12.9-7.4a28.4,28.4,0,0,1,38.7,10.3l45.8,79.3A28.3,28.3,0,0,1,1102.5,1584.5Z"/><path class="b" d="M1233.3,1272.6l-119.5,69a23.4,23.4,0,0,0-9.8,29.4l24.6,42.5a23.3,23.3,0,0,0,14.1,10.8,22.6,22.6,0,0,0,17.7-2.3l8.7-5a22.6,22.6,0,0,0,10.8-14.4,22.3,22.3,0,0,0-.5-13.5,13.4,13.4,0,0,0-.7-1.8h0c-4.9-10.9,1.8-19.2,12.3-25.3l21.5-12.4c11.1-6.4,25.6-2.3,32,8.9l12.5,21.6a8.4,8.4,0,0,1-2.5,8.9l-1.3,1-85.9,49.6a23.1,23.1,0,0,0-7.7,27.6l54.7,94.8a23.4,23.4,0,0,0,30.2,6l56.2-32.4a8.1,8.1,0,0,0,3.2-3.4l12.6-23.7a8.4,8.4,0,0,1,14.7-.2,8.4,8.4,0,0,0,11.4,3.1L1364,1499a23.4,23.4,0,0,0,9.8-29.5l-110.1-190.6A23.3,23.3,0,0,0,1233.3,1272.6Zm52.6,192.8-13.2,24.7c-7,13.2-31,17.2-38.7,4.4l-3.4-5.9a27.2,27.2,0,0,1-2.1-4.6c-3.2-10.2,5.8-24.5,15.5-30.1l21.4-12.4h.3c12.6-7.1,27.3,6.3,22.1,19.8A40.8,40.8,0,0,1,1285.9,1465.4Z"/><path class="b" d="M1642.9,1036.2l-119.5,69a23.3,23.3,0,0,0-9.8,29.4l24.5,42.4a23.4,23.4,0,0,0,14.1,10.9,23.8,23.8,0,0,0,17.8-2.3l8.6-5a22.9,22.9,0,0,0,10.9-14.5,23.6,23.6,0,0,0-.5-13.4l-.7-1.8h-.1c-4.9-10.8,1.8-19.1,12.3-25.2l21.5-12.4c11.1-6.4,25.6-2.3,32.1,8.9l12.4,21.5a8.7,8.7,0,0,1-2.4,9l-1.4,1-85.9,49.5a23.4,23.4,0,0,0-7.7,27.7l54.7,94.8a23.4,23.4,0,0,0,30.2,6l56.2-32.5a7.8,7.8,0,0,0,3.2-3.3l12.6-23.7a7.9,7.9,0,0,1,3.2-3.3,8.4,8.4,0,0,1,11.5,3.1,8.4,8.4,0,0,0,11.5,3l21.4-12.3a23.4,23.4,0,0,0,9.7-29.5l-110.1-190.7A23.3,23.3,0,0,0,1642.9,1036.2Zm52.5,192.8-13.1,24.6c-7.1,13.3-31.1,17.3-38.8,4.4l-3.4-5.8a26.7,26.7,0,0,1-2-4.6c-3.3-10.2,5.7-24.5,15.4-30.1l21.5-12.4h.2c12.6-7.1,27.3,6.3,22.1,19.8A38.9,38.9,0,0,1,1695.4,1229Z"/><path class="b" d="M1276.8,1083.8h0a28.4,28.4,0,0,0-10.4,38.7l175.8,304.4a23.4,23.4,0,0,0,31.9,8.6l119.6-69.1a23.2,23.2,0,0,0,8.5-31.9l-107.3-185.9a23.3,23.3,0,0,0-31.9-8.5l-70.5,40.7a23.2,23.2,0,0,1-31.9-8.5l-45.1-78.1A28.3,28.3,0,0,0,1276.8,1083.8Zm186.1,265.8-50.7-87.8a23.4,23.4,0,0,1,8.6-31.9l21.5-12.5a23.4,23.4,0,0,1,31.9,8.6l50.7,87.8a23.4,23.4,0,0,1-8.5,31.9l-21.6,12.4A23.4,23.4,0,0,1,1462.9,1349.6Z"/><path class="b" d="M1943.2,1164.2l-97.4,56.3a37.4,37.4,0,0,1-50.9-13.7l-97.8-169.3a28.2,28.2,0,0,1,10.3-38.5h0a28.2,28.2,0,0,1,38.4,10.3l69.7,120.7a37.2,37.2,0,0,0,50.8,13.6h0a37.3,37.3,0,0,0,13.7-50.8l-69.7-120.7a28,28,0,0,1,10.3-38.4h0A28,28,0,0,1,1859,944l97.8,169.4A37.2,37.2,0,0,1,1943.2,1164.2Z"/><path class="b" d="M2180.9,1027.2l-121.8,70.3a15.9,15.9,0,0,1-21.8-5.9L1922.6,893a15.9,15.9,0,0,1,5.9-21.8l121.7-70.3a28.1,28.1,0,0,1,38.5,10.3h0a28.2,28.2,0,0,1-10.3,38.4l-69.5,40.1a15.9,15.9,0,0,0-5.9,21.8l58.4,101.2a16,16,0,0,0,21.9,5.9l69.5-40.1a28.1,28.1,0,0,1,38.4,10.3h0A28.1,28.1,0,0,1,2180.9,1027.2Z"/><path class="b" d="M2271.8,705.5l102.5,177.4a28.3,28.3,0,0,1-10.3,38.5h0a28.2,28.2,0,0,1-38.4-10.3l-26.3-45.5a28.1,28.1,0,0,0-38.4-10.3L2244,865a28.1,28.1,0,0,0-10.3,38.5l26.2,45.5a28.1,28.1,0,0,1-10.3,38.4h0a28.2,28.2,0,0,1-38.4-10.3L2108.8,799.7a28.1,28.1,0,0,1,10.3-38.5h0a28.2,28.2,0,0,1,38.4,10.3l19.9,34.5a28.1,28.1,0,0,0,38.4,10.3l16.9-9.7a28.1,28.1,0,0,0,10.3-38.5l-19.9-34.4a28.3,28.3,0,0,1,10.3-38.5h0A28.2,28.2,0,0,1,2271.8,705.5Z"/><path class="b" d="M2565.5,567.9c-11.6,6.7-25.3,27.1-18.6,38.7l63.4,109.7a71.4,71.4,0,0,1,3.7,7.3l-67.4-116.8a24.2,24.2,0,0,1,8.8-33.1Z"/><path class="b" d="M2717.7,638.4l20.3,35.1a28.2,28.2,0,0,1-4.4,33.8,26.7,26.7,0,0,1-5.9,4.6,28.2,28.2,0,0,1-38.5-10.3l-76.7-132.9a24.3,24.3,0,0,0-33-8.9l-24.1,13.9a24.2,24.2,0,0,0-8.8,33.1l76.7,132.9a28.1,28.1,0,0,1-10.3,38.4,22.8,22.8,0,0,1-6.9,2.8,28.1,28.1,0,0,1-31.5-13.1l-20.2-35.1a118.7,118.7,0,0,0-5.8-10.8L2470.1,586a24.2,24.2,0,0,1,6.7-31.7l1.7-1.2,121.2-69.9,2.2-1.2a24.1,24.1,0,0,1,30.8,10.1L2711.2,628A112.4,112.4,0,0,0,2717.7,638.4Z"/><path class="b" d="M2633.1,491.9l84.6,146.5a112.4,112.4,0,0,1-6.5-10.4l-78.5-135.9a24.1,24.1,0,0,0-30.8-10.1A24.2,24.2,0,0,1,2633.1,491.9Z"/><path class="b" d="M2486.9,548.5a24.2,24.2,0,0,0-6.8,31.6l78.5,136a98.2,98.2,0,0,1,5.8,10.8l-84.6-146.6A24.1,24.1,0,0,1,2486.9,548.5Z"/><path class="b" d="M2622.6,562.9,2690,679.7a80.9,80.9,0,0,1-4.4-6.9l-63.4-109.7c-6.6-11.6-31.2-9.9-42.7-3.3l10.1-5.8A24.1,24.1,0,0,1,2622.6,562.9Z"/><rect class="b" x="891.9" y="1261.2" width="170.6" height="56.25" rx="28.1" transform="translate(-513.7 661.3) rotate(-30)"/><path class="b" d="M1100.8,1324.1c-15.1-3.6-20.3-17.2-16.7-32.4.4-2,3.9-13.3,4.5-15.2,9.9-29.8,32.6-50.1,63.9-45.4,2.8.4,10,3.1,12.8,3.9a2.2,2.2,0,0,0,2.5-1.2l8.3-20.1c6-14.3,23.2-21.6,37.5-15.6s17.2,21.9,12.8,35.9c-6.6,20.9-19.1,39.8-39.6,48.9a64.9,64.9,0,0,1-45.1,2.8,2.1,2.1,0,0,0-2.6,1.5l-4.5,16A28,28,0,0,1,1100.8,1324.1Z"/><path class="b" d="M1591.8,1039.7l-20.8-5.1a10,10,0,0,0-11.9,6.6l-7.6,22.2a22.5,22.5,0,0,1-28.6,14.1h0a22.6,22.6,0,0,1-14-28.6l17.2-50.5a22.5,22.5,0,0,1,26.6-14.6l49.8,12.2a22.5,22.5,0,0,1,16.5,27.2h0A22.4,22.4,0,0,1,1591.8,1039.7Z"/><rect class="b" x="1802.5" y="406.4" width="873.3" height="56.61" rx="28.3" transform="translate(82.6 1177.8) rotate(-30)"/><rect class="b" x="1865.2" y="531.3" width="752.4" height="56.61" rx="28.3" transform="translate(20.5 1195.7) rotate(-30)"/><path class="b" d="M1771.5,737.6l81.6,28.2c22.9,7.9,25.9,39.1,4.9,51.2l-3.8,2.2a28.4,28.4,0,0,1-23.3,2.3l-63.2-21.8a28.3,28.3,0,0,0-37,21.3L1718,886.6a27.9,27.9,0,0,1-13.6,19.1l-3.8,2.2c-21,12.1-46.5-6-41.9-29.8l16.4-84.8a28.4,28.4,0,0,0-18.6-32.1L1575,733c-23-7.9-25.9-39.1-4.9-51.2l3.7-2.2a28.3,28.3,0,0,1,23.4-2.2l63.2,21.8a28.3,28.3,0,0,0,37-21.4l12.6-65.6a28.6,28.6,0,0,1,13.7-19.1l3.8-2.2c21-12.1,46.5,6.1,41.9,29.9L1753,705.5A28.3,28.3,0,0,0,1771.5,737.6Z"/></svg>