<svg xmlns="http://www.w3.org/2000/svg" viewBox="0 0 2282 1845.9"><defs><style>.a{fill:#fdcb50;}.b{fill:#231f20;}</style></defs><rect class="a" x="42.7" y="420.3" width="2196.7" height="1005.32" rx="168.1" transform="translate(-308.6 694.2) rotate(-30)"/><path class="b" d="M1150.2,1123.9a23.2,23.2,0,0,1-2.9,38.3L523.5,1522.1a28.2,28.2,0,0,1-38.4-10.4,27.7,27.7,0,0,1-2.8-21.3,28,28,0,0,1,13.2-17.1l620.4-357.9a23.1,23.1,0,0,1,26,2Z"/><path class="b" d="M782.2,1060.8l68.5,118.6-1.2-2.4-65.8-113.9A22.2,22.2,0,0,0,782.2,1060.8Zm-149.9,62.8-2.2,1.5,85.9-49.6,1.4-1Zm-9.3,30.5a6.4,6.4,0,0,0,.8,1.4l65.7,113.8a23.3,23.3,0,0,0,1.7,2.6l-68.8-119.2Z"/><path class="b" d="M696.2,958.1l-100,57.8a23.3,23.3,0,0,0-9.8,29.4l24.5,42.4a23.4,23.4,0,0,0,14.1,10.9,23.8,23.8,0,0,0,17.8-2.3l8.6-5a23.2,23.2,0,0,0,10.9-14.5,23.6,23.6,0,0,0-.5-13.4l-.7-1.8H661c-4.9-10.8,1.8-19.1,12.3-25.2l2-1.1c11.1-6.5,25.6-2.4,32.1,8.8l12.4,21.6a8.3,8.3,0,0,1-2.4,8.9l-1.4,1-85.9,49.6a23.2,23.2,0,0,0-7.7,27.6l68.8,119.2a23.4,23.4,0,0,0,30.2,6l56.2-32.5a7.8,7.8,0,0,0,3.2-3.3l12.6-23.7a7.3,7.3,0,0,1,3.2-3.3,8.4,8.4,0,0,1,11.5,3.1,8.3,8.3,0,0,0,11.4,3l21.4-12.3a23.4,23.4,0,0,0,9.8-29.5l-124.2-215A23.3,23.3,0,0,0,696.2,958.1Zm0,220.9a26.7,26.7,0,0,1-2-4.6c-3.2-10.2,5.8-24.5,15.5-30.1l21.4-12.4a23.3,23.3,0,0,1,28.9,4.5,20.6,20.6,0,0,1,3,4.1l2.7,4.7h0a39.7,39.7,0,0,1-2.9,30l-13.1,24.6c-7.1,13.3-31.1,17.3-38.8,4.5-.1-.1-5.5-9.5-5.5-9.6Z"/><path class="b" d="M1244,829.1l49,231.1a23.7,23.7,0,0,1-11.2,25.1l-27.8,16a23.3,23.3,0,0,1-26.2-2L1044.2,953.2a23.4,23.4,0,0,0-26.2-1.9L970.1,979a23.5,23.5,0,0,1-31.8-8.3h0a23.4,23.4,0,0,1,8.4-32.2l87.6-50.5a23.2,23.2,0,0,1,26.6,2.3l120.7,101c17.3,14.4,43-1.5,37.7-23.4l-29.7-123.3a23.4,23.4,0,0,1,11-25.7l8.9-5.2A23.3,23.3,0,0,1,1244,829.1Z"/><path class="b" d="M1393,718.7l-119.5,69a23.4,23.4,0,0,0-8.6,31.9l107.3,185.8a23.4,23.4,0,0,0,31.9,8.6l119.6-69a23.5,23.5,0,0,0,8.5-31.9L1424.9,727.2A23.3,23.3,0,0,0,1393,718.7Zm61.8,173.7a23.3,23.3,0,0,1-8.5,31.9l-21.4,12.4a23.4,23.4,0,0,1-31.9-8.6l-50.7-87.8a23.3,23.3,0,0,1,8.5-31.9l21.5-12.4a23.2,23.2,0,0,1,31.8,8.6Z"/><path class="b" d="M1761,682.4l70.5-40.7a23.1,23.1,0,0,0,8.5-31.8l-52.9-91.8a23.4,23.4,0,0,0-31.9-8.6l-119.6,69.1a23.2,23.2,0,0,0-8.5,31.8l107.3,185.9a23.4,23.4,0,0,0,31.9,8.6l118.2-68.3a23.4,23.4,0,0,0,8.6-31.9l-5-8.5a23.4,23.4,0,0,0-31.9-8.6l-69.1,39.9a23.2,23.2,0,0,1-31.9-8.5l-2.7-4.6A23.4,23.4,0,0,1,1761,682.4Zm-62.2-61a23.3,23.3,0,0,1,8.6-31.9l21.4-12.4a23.3,23.3,0,0,1,31.9,8.5l7.7,13.4a23.3,23.3,0,0,1-8.6,31.9l-21.4,12.4a23.4,23.4,0,0,1-31.9-8.6Z"/><path class="b" d="M1608.4,621.3l4.9,8.6a23.2,23.2,0,0,1-8.5,31.9l-17.4,10a23.4,23.4,0,0,0-8.5,31.9l78.9,136.7a23.4,23.4,0,0,1-8.6,31.9l-8.6,4.9a23.2,23.2,0,0,1-31.8-8.5L1529.9,732a23.4,23.4,0,0,0-31.9-8.5l-17.5,10.1a23.4,23.4,0,0,1-31.9-8.6l-4.9-8.6a23.3,23.3,0,0,1,8.5-31.9l124.3-71.7A23.4,23.4,0,0,1,1608.4,621.3Z"/><path class="b" d="M539.5,1117l-4.1,2.3a10.3,10.3,0,0,1-13.3-2.4l-43.7-48.8a10.6,10.6,0,0,1,2.8-15.8l27.3-15.7a10.5,10.5,0,0,1,15.1,5.4l20.5,62.2A10.6,10.6,0,0,1,539.5,1117Z"/><rect class="b" x="1841.5" y="315.5" width="56.6" height="398.58" rx="28.3" transform="translate(-6.9 1003.9) rotate(-30)"/><rect class="b" x="1983.6" y="727.2" width="56.6" height="67.72" rx="28.3" transform="translate(-111 1107.9) rotate(-30)"/><path class="b" d="M1170.2,623.6l81.5,28.2c22.9,7.9,25.9,39.1,4.9,51.2l-3.8,2.2a28.4,28.4,0,0,1-23.3,2.3l-63.2-21.8a28.3,28.3,0,0,0-37,21.3l-12.7,65.6a27.9,27.9,0,0,1-13.6,19.1l-3.8,2.2c-21,12.1-46.5-6-41.9-29.8l16.4-84.8a28.4,28.4,0,0,0-18.6-32.1L973.6,619c-22.9-7.9-25.9-39.1-4.9-51.2l3.8-2.2a28,28,0,0,1,23.3-2.2l63.2,21.8a28.3,28.3,0,0,0,37-21.4l12.7-65.6a28.1,28.1,0,0,1,13.6-19.1l3.8-2.2c21-12.1,46.5,6.1,41.9,29.9l-16.4,84.7A28.4,28.4,0,0,0,1170.2,623.6Z"/><path class="b" d="M1621.8,523.9h0a17.9,17.9,0,0,1-9.1-20l22.7-92.9a17.9,17.9,0,0,1,23.3-12.6l22.2,7.8a17.8,17.8,0,0,1,9.9,25.2l-44.9,85.1A17.8,17.8,0,0,1,1621.8,523.9Z"/><path class="b" d="M960.9,717.2h0a28.1,28.1,0,0,1-10.3,38.4L450.2,1044.5a28.2,28.2,0,0,0-10.3,38.4l125.8,217.8a63.8,63.8,0,0,1-23.3,87.1l-41.3,23.8a63.7,63.7,0,0,1-87-23.4l-20.8-36a28,28,0,0,1,10.3-38.4h0a28.1,28.1,0,0,1,38.4,10.3l10.5,18.1a28,28,0,0,0,38.4,10.3l5.4-3.1a28.1,28.1,0,0,0,10.3-38.5L391.2,1111a28.1,28.1,0,0,0-38.4-10.2L298.7,1132a28.2,28.2,0,0,1-38.4-10.3h0a28.1,28.1,0,0,1,10.3-38.4L922.5,706.9A28,28,0,0,1,960.9,717.2Z"/><rect class="b" x="1298" y="539.9" width="274.6" height="56.25" rx="28.1" transform="translate(-91.7 793.7) rotate(-30)"/><rect class="b" x="1222.5" y="371.9" width="553.1" height="56.25" rx="28.1" transform="translate(0.8 803.1) rotate(-30)"/><path class="b" d="M894.4,945.3,953,1046.8a28.2,28.2,0,0,0,38.4,10.3l37.4-21.6a28.1,28.1,0,0,1,38.4,10.3h0a28.1,28.1,0,0,1-10.3,38.4l-152.7,88.1a28.1,28.1,0,0,1-38.4-10.2h0a28.1,28.1,0,0,1,10.3-38.5l17.9-10.3a28.1,28.1,0,0,0,10.2-38.4L845.7,973.4a28.2,28.2,0,0,0-38.5-10.3l-17.8,10.3a28.1,28.1,0,0,1-38.5-10.3h0a28.2,28.2,0,0,1,10.3-38.4l235.6-136a28.2,28.2,0,0,1,38.4,10.3h0a28.3,28.3,0,0,1-10.3,38.5L904.7,906.9A28,28,0,0,0,894.4,945.3Z"/><path class="b" d="M1928.8,841.3,580.1,1619.6a28,28,0,0,1-38.4-10.3h0a28.2,28.2,0,0,1,10.3-38.4L1900.7,792.6a28.1,28.1,0,0,1,38.4,10.3h0A28.2,28.2,0,0,1,1928.8,841.3Z"/></svg>