<svg xmlns="http://www.w3.org/2000/svg" viewBox="0 0 2085.6 1729.1"><defs><style>.a{fill:#fecc4f;}.b{fill:#231f20;}</style></defs><rect class="a" x="56.1" y="364.9" width="1973.4" height="999.27" rx="168.1" transform="translate(-292.6 637.2) rotate(-30)"/><path class="b" d="M1832.4,744.1,1533.3,916.4a28,28,0,0,1-38.4-10.3h0a28.1,28.1,0,0,1,10.3-38.4l299.1-172.3a28,28,0,0,1,38.4,10.3h0A28.1,28.1,0,0,1,1832.4,744.1Z"/><path class="b" d="M1107,1162.9,561.9,1477.3a28.1,28.1,0,0,1-38.4-10.4h0a28.1,28.1,0,0,1,10.3-38.4l545.1-314.4a28.3,28.3,0,0,1,38.5,10.4h0A28.1,28.1,0,0,1,1107,1162.9Z"/><rect class="b" x="445.4" y="1263.1" width="302.5" height="56.25" rx="28.1" transform="translate(-564.6 469.9) rotate(-29.9)"/><path class="b" d="M871.3,675,629.1,814.5a28.1,28.1,0,0,1-38.4-10.4h0A28.1,28.1,0,0,1,601,765.7L843.2,626.2a28.3,28.3,0,0,1,38.5,10.4h0A28.2,28.2,0,0,1,871.3,675Z"/><path class="b" d="M1562.2,276.1,1220.5,473a28.1,28.1,0,0,1-38.4-10.3h0a28.1,28.1,0,0,1,10.3-38.4l341.7-196.9a28,28,0,0,1,38.4,10.3h0A28.1,28.1,0,0,1,1562.2,276.1Z"/><rect class="b" x="1631.2" y="306.7" width="56.6" height="275.87" rx="28.3" transform="translate(0 889.3) rotate(-30)"/><rect class="b" x="1739.7" y="598.8" width="56.6" height="67.72" rx="28.3" transform="translate(-79.5 968.8) rotate(-30)"/><path class="b" d="M1092.7,547.9l81.5,28.2c23,7.9,25.9,39.1,5,51.3l-3.8,2.2a28.6,28.6,0,0,1-23.4,2.2L1088.8,610a28.3,28.3,0,0,0-37,21.4l-12.6,65.5a28.5,28.5,0,0,1-13.7,19.2l-3.8,2.1c-21,12.2-46.5-6-41.9-29.8l16.4-84.8a28.3,28.3,0,0,0-18.5-32.1l-81.6-28.1c-22.9-8-25.9-39.2-4.9-51.3l3.8-2.2a28.2,28.2,0,0,1,23.4-2.2l63.1,21.8a28.3,28.3,0,0,0,37-21.4l12.7-65.6a28.1,28.1,0,0,1,13.6-19.1l3.8-2.2c21-12.1,46.5,6.1,41.9,29.9l-16.4,84.7A28.4,28.4,0,0,0,1092.7,547.9Z"/><path class="b" d="M584,966.7l-58.5,33.8a15.8,15.8,0,0,0-3.9,24c2.6,2.9,5.1,5.8,7.7,8.6A11,11,0,0,0,548,1029h0a25.1,25.1,0,0,1,31.4-16.5l.5.2a25,25,0,0,1,16.5,31.3l-9.6,30.9a15.6,15.6,0,0,0,6.2,17.7l9.9,6.5c8.7,5.6,18,2,20.7-8l1.6-5.9a14.8,14.8,0,0,1,18-10.4l20.4,5.4a14.8,14.8,0,0,1,10.5,18.1l-21,78.5c-2.6,9.8-8.6,13.4-22.4,8.5,0,0-25.6-12.2-58.6-34.9a6,6,0,0,0-9.4,3.5h0a25.1,25.1,0,0,1-31.7,17.6h0a25,25,0,0,1-16.7-30.7l6.8-24.3a15.9,15.9,0,0,0-4.2-15.5l-1.1-1.1a678.9,678.9,0,0,1-47.4-51.3,15.8,15.8,0,0,0-19.9-3.6l-21.3,12.3a15.7,15.7,0,0,0-5.7,21.4l17.7,30.6h0a20.1,20.1,0,0,1,28.4.6l7.2,7.5a20.1,20.1,0,0,1-.7,28.5l-8.9,8.5,46.2,80a25.4,25.4,0,0,1-9.3,34.6l-47.8,27.6a25.2,25.2,0,0,1-34.5-9.3h0a25.3,25.3,0,0,1,9.2-34.6l18.1-10.4a9,9,0,0,0,3.3-12.3l-22.9-39.6-22,21.1a20.2,20.2,0,0,1-28.5-.7l-7.2-7.5a20.1,20.1,0,0,1,.7-28.5l31-29.6L377.6,1104a15.6,15.6,0,0,0-21.4-5.7l-15,8.6a25.3,25.3,0,0,1-34.6-9.2h0a25.4,25.4,0,0,1,9.3-34.6l15-8.7a15.7,15.7,0,0,0,5.8-21.4l-21.4-37-28.4,16.4a25.5,25.5,0,0,1-34.9-9.3l-2.8-4.8a25.6,25.6,0,0,1,9.4-34.9l72.2-41.7a25.5,25.5,0,0,1,34.9,9.3l2.8,4.8a25.5,25.5,0,0,1-9.4,34.9h0l21.4,37a15.6,15.6,0,0,0,21.4,5.7l13-7.5a15.5,15.5,0,0,0,5.3-22c-7.8-11.9-15.4-24.2-22.5-36.6l-13.8-23.8a28.1,28.1,0,0,1,10.3-38.4h0a28,28,0,0,1,38.4,10.3l13.8,23.8c7.5,13,15.4,25.8,23.8,38.2a15.5,15.5,0,0,0,20.7,4.7l67.8-39.2a25.4,25.4,0,0,1,34.6,9.3h0A25.2,25.2,0,0,1,584,966.7Z"/><rect class="b" x="439.3" y="834.6" width="99.7" height="56.64" rx="28.3" transform="translate(-365.9 360.2) rotate(-30)"/><path class="b" d="M1564.7,765.9l-70.1,40.4a28.1,28.1,0,0,1-38.4-10.3h0a28.1,28.1,0,0,1,10.3-38.4l34-19.6a11.5,11.5,0,0,0,4.2-15.7l-60.1-104a93.8,93.8,0,0,1-6.6-79.7l17.6-47c3.8-10.1-7.2-19.4-16.6-14l-161.9,93.5a28.1,28.1,0,0,1-38.4-10.3h0a28.1,28.1,0,0,1,10.3-38.4l220.7-127.5c15.1-8.7,34.3-8.3,48.1,2.3a42.1,42.1,0,0,1,14.3,46.9l-32.9,88.4A93.7,93.7,0,0,0,1506,612l68.2,118.2A26.1,26.1,0,0,1,1564.7,765.9Z"/><path class="b" d="M1200.2,708.2h0a8,8,0,0,1,2.9-10.9l48.2-27.8a22.4,22.4,0,0,0,8.2-30.7h0a22.4,22.4,0,0,0-30.7-8.3L1015.2,753.8a22.6,22.6,0,0,0-8.2,30.8h0a22.5,22.5,0,0,0,30.7,8.2l27.8-16a8,8,0,0,1,10.9,2.9h0a8,8,0,0,1-2.9,10.9l-17.2,10a57.1,57.1,0,0,0-21,78h0a57.2,57.2,0,0,0,78.1,21l192.5-111.2a57.1,57.1,0,0,0,20.9-78.1h0a57.1,57.1,0,0,0-78-20.9l-37.7,21.8A7.9,7.9,0,0,1,1200.2,708.2Zm-81.9,38.1,32-18.5a8,8,0,0,1,10.9,2.9h0a8,8,0,0,1-2.9,10.9l-32,18.6a8.1,8.1,0,0,1-11-3h0A8,8,0,0,1,1118.3,746.3Zm-43.1,95.3,20.8-12a8,8,0,0,1,10.9,2.9l4.1,7.2a8.1,8.1,0,0,1-2.9,11l-20.8,12a7.9,7.9,0,0,1-10.9-3l-4.2-7.2A7.9,7.9,0,0,1,1075.2,841.6Zm73.6-42.5,32-18.5a8,8,0,0,1,10.9,2.9l4.2,7.3a8,8,0,0,1-2.9,10.9l-32.1,18.5a7.9,7.9,0,0,1-10.9-3l-4.2-7.2A7.9,7.9,0,0,1,1148.8,799.1ZM1287,747.4l-41.2,23.8a8,8,0,0,1-10.9-2.9l-4.2-7.3a8,8,0,0,1,2.9-10.9l41.3-23.8a8,8,0,0,1,10.9,2.9l4.2,7.2A8.1,8.1,0,0,1,1287,747.4Z"/><rect class="b" x="1131.2" y="858.2" width="191.2" height="45" rx="22.5" transform="translate(-276 731.4) rotate(-30)"/><path class="b" d="M1388,861.2h0a22.6,22.6,0,0,1-8.2,30.8l-78.3,45.2a10.3,10.3,0,0,0-3.8,14.2l39.4,68.2a42.7,42.7,0,0,1-15.7,58.4l-21.4,12.3a28.1,28.1,0,0,1-38.4-10.3h0a28.1,28.1,0,0,1,10.3-38.4l5.5-3.2a10.3,10.3,0,0,0,3.8-14.2l-27.4-47.5a10.3,10.3,0,0,0-14.2-3.8l-73.4,42.4a22.4,22.4,0,0,1-30.7-8.3h0a22.4,22.4,0,0,1,8.2-30.7L1357.3,853A22.5,22.5,0,0,1,1388,861.2Z"/><path class="b" d="M984.8,981a10.5,10.5,0,0,1-7.6-13.6c21.4-66.8,23.4-82.1,9.4-92.8-8.1-6.1-19.4-6.6-28.7-1.2L833,945.6c-9.2,5.3-14.5,15.1-13.4,25,2,17.9,18.6,22.6,51.5,31.9,8.3,2.4,17.9,4.9,28.9,7.8a10.5,10.5,0,0,1,7.4,13.6c-7.2,21.6-6.4,59-14.1,81.5-4.4,12.8,2.5,26,15.5,29.5h0a26.5,26.5,0,0,0,31.6-16.8c5.9-17.1,5.8-56.4,14.5-82.5a12.5,12.5,0,0,1,14.4-8.1c25.1,6.1,57.2,26.2,73.8,30a26.5,26.5,0,0,0,31-18h0a22.5,22.5,0,0,0-16.8-28.8C1035.7,1005.7,1005.5,986,984.8,981Zm-56.6-10-37.5-9.9,49.5-28.6C936.6,944.3,932.6,957.2,928.2,971Z"/><path class="b" d="M814.3,1035.6l-10.3,9.9,54.7,94.6a28.2,28.2,0,0,1-10.3,38.4l-37.7,21.8a28.1,28.1,0,0,1-38.4-10.3h0a28.1,28.1,0,0,1,10.3-38.4l15.8-9.2a2.6,2.6,0,0,0,1-3.6l-33-57.2-5.3,5.1a25.4,25.4,0,0,1-35.8-.6h0a25.3,25.3,0,0,1,.7-35.8l10.4-10a7.1,7.1,0,0,0,1.2-8.6l-21.4-37.1-18.5-32a7,7,0,0,0-9.6-2.6l-4.8,2.8a25.2,25.2,0,0,1-34.5-9.3h0a25.3,25.3,0,0,1,9.2-34.6l4.8-2.7a7.1,7.1,0,0,0,2.6-9.6l-6.5-11.3a25.3,25.3,0,0,1,9.2-34.6h0a25.4,25.4,0,0,1,34.6,9.3l6.5,11.3a7,7,0,0,0,9.6,2.5h0a25.4,25.4,0,0,1,34.6,9.3h0a25.4,25.4,0,0,1-9.3,34.6h0a7,7,0,0,0-2.5,9.6l16.7,29,18.8,32.4a1.3,1.3,0,0,0,2.1.4h0a25.3,25.3,0,0,1,35.8.7h0A25.3,25.3,0,0,1,814.3,1035.6Z"/><path class="b" d="M784.6,913.8a19.3,19.3,0,0,1-.7-18.2c4-8.5-1.8-38.8-16-63.3l-2.9-5a19.5,19.5,0,0,1,7.2-26.7l85.3-49.2a19.4,19.4,0,0,1,26.6,7.1l25.4,43.9a6.9,6.9,0,0,0,9.4,2.5l5.9-3.4a25.4,25.4,0,0,1,34.6,9.3h0a25.4,25.4,0,0,1-9.3,34.6L916.2,865a19.5,19.5,0,0,1-26.7-7.2l-19-32.9a19.5,19.5,0,0,0-26.7-7.2l-7.5,4.3a19.7,19.7,0,0,0-9.1,21.7c7.9,31.5,7.4,68.8-3,83.4a19.4,19.4,0,0,1-32.8-1.5Z"/><rect class="b" x="1150.4" y="1049.6" width="85" height="45" rx="22.5" transform="translate(-190.8 1883.2) rotate(-72.3)"/><rect class="b" x="1375.7" y="911" width="45" height="84.98" rx="22.5" transform="translate(168.1 2115.9) rotate(-77.7)"/></svg>