<svg xmlns="http://www.w3.org/2000/svg" viewBox="0 0 2220.5 1858.9"><defs><style>.a{fill:#fecc4f;}.b{fill:#231f20;}</style></defs><rect class="a" x="71.7" y="384.8" width="2077.2" height="1089.28" rx="168.1" transform="translate(-316 679.6) rotate(-30)"/><rect class="b" x="1209.4" y="417.2" width="549.3" height="56.61" rx="28.3" transform="translate(-23.9 801.7) rotate(-30)"/><rect class="b" x="754.3" y="893" width="262.7" height="56.61" rx="28.3" transform="translate(-342 566.2) rotate(-30)"/><rect class="b" x="608.3" y="829.3" width="364.1" height="56.61" rx="28.3" transform="translate(-322.9 510) rotate(-30)"/><rect class="b" x="1289.1" y="602.1" width="200.7" height="56.61" rx="28.3" transform="translate(-129 779.2) rotate(-30)"/><rect class="b" x="445.7" y="1465.8" width="270" height="56.61" rx="28.3" transform="translate(-669.3 490.5) rotate(-30)"/><rect class="b" x="404.7" y="1201" width="1716.2" height="56.61" rx="28.3" transform="translate(-445.4 796.1) rotate(-30)"/><rect class="b" x="1780.3" y="377.1" width="56.6" height="275.87" rx="28.3" transform="translate(-15.2 973.3) rotate(-30)"/><rect class="b" x="1888.8" y="669.2" width="56.6" height="67.72" rx="28.3" transform="matrix(0.87, -0.5, 0.5, 0.87, -94.66, 1052.76)"/><path class="b" d="M1156.7,667.4l81.6,28.2c22.9,7.9,25.9,39.1,4.9,51.3l-3.8,2.1a28,28,0,0,1-23.3,2.3l-63.2-21.8a28.4,28.4,0,0,0-37,21.3l-12.7,65.6a27.9,27.9,0,0,1-13.6,19.1l-3.8,2.2c-21,12.2-46.5-6-41.9-29.8l16.4-84.8a28.4,28.4,0,0,0-18.6-32.1l-81.5-28.2c-23-7.9-25.9-39.1-4.9-51.2l3.7-2.2a28.3,28.3,0,0,1,23.4-2.2l63.2,21.8a28.3,28.3,0,0,0,37-21.4l12.6-65.6a28.6,28.6,0,0,1,13.7-19.1l3.8-2.2c21-12.1,46.5,6.1,41.9,29.9l-16.4,84.7A28.2,28.2,0,0,0,1156.7,667.4Z"/><path class="b" d="M1704.3,537.4a10.1,10.1,0,0,1-13.8-3.7l-1.4-2.4c-3.3-6.2-26.1-45-59.6-54.9-15.8-4.7-41-6.6-71.6,11.1s-41.4,40.3-45.4,56.3a88.4,88.4,0,0,0-1.3,33.7c3.1,19.7,25.1,29.9,41.9,19.4l1.1-.7c9.5-5.9,14-16.9,12.5-28a28.9,28.9,0,0,1,.5-11.3c2.1-7.8,8.2-14.6,18.8-20.7s19.8-8.1,27.3-5.9c10.6,2.9,24.1,23.6,26.1,27.4l2.4,4.1a9.9,9.9,0,0,1-3.7,13.7l-393,227a18.5,18.5,0,0,0-6.8,25.3l69,119.6a18,18,0,0,1-1.1,19.9l-5.4,7.3a85.8,85.8,0,0,1-56.8,33,8.9,8.9,0,0,1-9.6-6.7c-.9-3.7-1.8-7.9-2.6-11.8-1.7-7.5-3.6-16.2-6.1-26.4-9.3-38.6-26-65.1-49.6-78.6s-45.9-8.6-50.1-7.4l-3.1.9-19.7,11.3a28.1,28.1,0,0,0-10.3,38.5h0a28.2,28.2,0,0,0,38.4,10.3l11.7-6.8c7.2,1.1,19.9,11.1,28.1,45.1,2.3,9.7,4.1,18.1,5.7,25.2,7.6,34.5,14.2,64.2,60.6,63.2a137.6,137.6,0,0,0,66-18.5,141.4,141.4,0,0,0,40.5-35.2l18.7,32.4a28.1,28.1,0,0,0,38.4,10.3h0a28.1,28.1,0,0,0,10.3-38.4l-96.2-166.7a18.5,18.5,0,0,1,6.8-25.2l13-7.5a17.7,17.7,0,0,1,24.2,6.5l39.2,67.9a28.2,28.2,0,0,0,38.4,10.3h0a28.1,28.1,0,0,0,10.3-38.5l-39.7-68.9a16.5,16.5,0,0,1,6-22.6l15.9-9.2a14.5,14.5,0,0,1,16.9,1.8c12.1,11.1,28.6,23,49.1,30.3a9.1,9.1,0,0,1,5.2,12.3c-10,22.6-14.2,45.6-12.5,68.7a21.7,21.7,0,0,0,.4,2.5v.8c1.3,7.1,11.7,22.7,18.3,25.5l5.2,2.2c3.4,1.4,85.6,34.9,146.6-.3l2.2-1.3c26.2-16,43.6-41.5,52.1-76.1,4-16.6-8.2-32.8-25.3-34.2h0a28.4,28.4,0,0,0-29.6,21.6c-4.9,19.2-13.7,32.8-26.4,40.6l-1.1.7c-19.8,11.4-47.7,9.7-69.3,5.2-5.8-1.2-14.9-17-13.3-22.6a92.3,92.3,0,0,1,7.2-17c10.2-19.6,26.8-36.4,47.9-48.6l42.2-24.4a25.6,25.6,0,0,0,9.4-34.9l-30-51.9a11.8,11.8,0,0,1,4.4-16.1l35.8-20.8a11.9,11.9,0,0,1,16.2,4.4l99.5,172.4a28.1,28.1,0,0,0,38.4,10.3h0a28.1,28.1,0,0,0,10.3-38.4l-100.4-174a10,10,0,0,1,3.7-13.7h0a28.2,28.2,0,0,0,10.3-38.4h0a28.1,28.1,0,0,0-38.4-10.3ZM1586.6,708.8a7.6,7.6,0,0,1-2.8,10.4l-9.1,5.3a198.2,198.2,0,0,0-24.4,16.7,10.8,10.8,0,0,1-5.8,2.5,68.5,68.5,0,0,1-39.8-7.8c-7.3-3.7-7.4-14.1-.3-18.2l56.5-32.6a10.3,10.3,0,0,1,14.2,3.8Z"/><path class="b" d="M987.7,1147.3c-6.8,14.1,7.8,40.6,23.4,42.2,18.6,2,38.9.8,53.9-8.4,12.6-7.8,21.5-21.4,26.3-40.6a28.5,28.5,0,0,1,29.7-21.6h0c17,1.4,29.2,17.6,25.2,34.2-8.4,34.6-25.9,60.1-52,76.1l-2.2,1.3c-61.1,35.2-143.2,1.7-146.7.3l-3.1-1.3c-7.8-3.3-18.8-20.4-19.5-28.9l-.3-3.2c-2.2-26.7,3.6-53.6,17.1-79.6,15.2-29.2,39.2-53.9,69.6-71.4h0a18.2,18.2,0,0,0,6.7-24.8l-3.2-5.5a12.6,12.6,0,0,0-17.2-4.6L802.9,1122.7l17.6,30.6a36.8,36.8,0,0,1-13.5,50.4l-89.4,51.7c-17.4,11-10.3,23.3-8,27.4l1.6,2.6a9.6,9.6,0,0,0,12.7,3c22.8-12.8,98.4-56.2,98.4-56.2a28,28,0,0,1,38.4,10.4h0a27.9,27.9,0,0,1-10.4,38.3L806,1306.4c2.6.9,10.2,10.9,11.4,11,14.3,1.9,31.1-6,44-14.3a28.3,28.3,0,0,1,35.8,3.9l-5.7-9.7c12.4,12.8,15.5,43.4.6,53.1l-8.1,4.9c-19.7,11.4-45.9,21.4-73.5,18-13.6-1.7-31.3-7.3-48.1-22.7-2.3-2-11.2-12.3-13.8-10.9-9.2,5.1-23.7,10.5-40.8,7.6-13.1-2.3-31.9-10.5-46.9-36.3-27.7-48,1.6-88.5,28.1-104.1l62.3-35.9a12.6,12.6,0,0,0,4.6-17.2l-1.8-3-116.8,67.5a28.2,28.2,0,0,1-38.4-10.3h0a28,28,0,0,1,10.3-38.4l421.9-243.7a28.2,28.2,0,0,1,38.4,10.3h0a28.1,28.1,0,0,1-10.3,38.5h0a4.8,4.8,0,0,0-1.7,6.6l35.1,60.9a18.2,18.2,0,0,1-6.6,24.8l-48.7,28.1c-21.1,12.2-37.7,29-47.9,48.7A37.8,37.8,0,0,0,987.7,1147.3Z"/><path class="b" d="M599.6,1127.2c-20.4-4.6-35.7-22.7-46-39.8-8.7-14.6-2-34,14.3-40.6h0c12.5-5.1,26.7-.6,33.4,10.7l.3.5c4.4,7.4,14.7,8.6,21.2,2.5,9.9-9.1,18.1-17.2,24-23a84.2,84.2,0,0,1,65.1-24.9,77.8,77.8,0,0,1,25.9,6c19.4,8,21.6,34.6,4.1,47.4h0c-7.8,5.7-18,7.4-26.6,3.7a26.4,26.4,0,0,0-8.8-2,28.5,28.5,0,0,0-21.4,8.2c-9.2,9.2-23.9,23.3-41.1,38.6C630.9,1126.2,615.1,1130.7,599.6,1127.2Z"/><path class="b" d="M422.4,1076,509,1226.1a18.7,18.7,0,0,1-6.9,25.5l-21.6,12.5a18.6,18.6,0,0,1-24.1-4.7c-38.1-50-77.9-59.2-80.4-59.8h0a28.2,28.2,0,0,0-19.9,3.2l-50.2,29a28,28,0,0,0-10.3,38.4h0a28.2,28.2,0,0,0,38.4,10.3l23.5-13.6a28.2,28.2,0,0,1,32.4,2.9c8.3,6.9,17.9,17,27.5,31.2-14.3,8.8-26,16.4-32.5,21.9a58.2,58.2,0,0,0-15.2,19.5,59,59,0,0,0-5.7,34.5c5.5,39.2,45.1,78.4,78.9,90.5,17.3,6.2,33.8,5.3,46.8-2.1a50.8,50.8,0,0,0,7.9-5.9c27.5-25.4,14.2-74.5,9.8-90.6-3-11.3-6.4-21.9-9.9-31.7a18.6,18.6,0,0,1,8.2-22.6l24.6-14.2a18.7,18.7,0,0,1,25.5,6.8l44.9,77.8a28.1,28.1,0,0,0,38.4,10.3h0a28,28,0,0,0,10.3-38.4L489.9,1080.5a17.3,17.3,0,0,1,6.4-23.6l86.4-49.9A28.2,28.2,0,0,0,593,968.6h0a28.1,28.1,0,0,0-38.5-10.3l-119,68.7A35.8,35.8,0,0,0,422.4,1076Zm30.7,307.5c4,14.6,5.1,24,5.2,29.7-14.1-6.9-36.4-28.6-38.6-44.1a5,5,0,0,1,.4-1.9,3.5,3.5,0,0,1,.8-1.1c3.9-3.2,12.1-8.6,22-14.7C446.5,1361.1,450,1371.8,453.1,1383.5Z"/><path class="b" d="M433,989.3a12.7,12.7,0,0,1-13.4,17.8l-27.9-4c-30.9-4.5-69.2,4-99.7,21.3a28.1,28.1,0,0,1-35.6-7h-.1c-10.6-13.3-7.2-33.3,7.6-41.7a234.5,234.5,0,0,1,61.5-24.2c-24.6-4.1-52.6,3.3-71.7,10.2a28.2,28.2,0,0,1-34.6-13.2h0a28.2,28.2,0,0,1,15.2-39.6c29.9-10.7,77.5-22.3,119.9-7.9,29.8,10.1,53,31.8,67.1,62.7Z"/><rect class="b" x="436.6" y="899.9" width="56.6" height="67.72" rx="28.3" transform="translate(-404.6 357.6) rotate(-30)"/></svg>