<svg xmlns="http://www.w3.org/2000/svg" viewBox="0 0 2513.4 2028"><defs><style>.a{fill:#fecc4f;}.b{fill:#231f20;}.c{fill:#eae518;}.d{fill:#e91e57;}</style></defs><rect class="a" x="49" y="469.4" width="2415.4" height="1089.28" rx="168.1" transform="translate(-338.6 764.2) rotate(-30)"/><path class="b" d="M1406.6,610a23.2,23.2,0,0,0-34.6-16.6l-340.8,197a28.1,28.1,0,0,0-10.2,38.5,28.2,28.2,0,0,0,38.4,10.2L1396.8,644a23.3,23.3,0,0,0,11.4-23.6Z"/><rect class="b" x="194" y="1112.4" width="574.7" height="56.61" rx="28.3" transform="translate(-505.9 393.5) rotate(-30)"/><rect class="b" x="1723.8" y="313.8" width="279.7" height="56.61" rx="28.3" transform="translate(78.6 977.7) rotate(-30)"/><rect class="b" x="377.1" y="1176.2" width="438.9" height="56.61" rx="28.3" transform="translate(-522.3 459.7) rotate(-30)"/><rect class="b" x="374.2" y="1216.7" width="2125.3" height="56.61" rx="28.3" transform="translate(-430 885.2) rotate(-30)"/><path class="b" d="M1605.6,1050l684.7-395.3a28.3,28.3,0,0,0,10.4-38.7h0a28.4,28.4,0,0,0-38.7-10.4L1580.9,998.9a23.2,23.2,0,0,0-11.5,23.2l1.3,10.7A23.4,23.4,0,0,0,1605.6,1050Z"/><path class="b" d="M843.2,964.7l-16.4,84.8c-4.6,23.8,21,41.9,42,29.8l3.8-2.2a28.4,28.4,0,0,0,13.6-19.1l12.7-65.6a28.2,28.2,0,0,1,37-21.3L999,992.9a28.6,28.6,0,0,0,23.4-2.3l3.8-2.2c21-12.1,18-43.3-4.9-51.2L939.7,909a28.3,28.3,0,0,1-18.5-32.1l16.3-84.7c4.6-23.8-20.9-42-41.9-29.9l-3.8,2.2a28.4,28.4,0,0,0-13.6,19.1l-12.7,65.6a28.3,28.3,0,0,1-37,21.4l-63.1-21.8A28.2,28.2,0,0,0,742,851l-3.8,2.2c-21,12.1-18,43.3,4.9,51.2l81.6,28.2A28.3,28.3,0,0,1,843.2,964.7Z"/><path class="b" d="M796,1505.6l-97.4,56.2a37.3,37.3,0,0,1-50.9-13.6l-97.8-169.4a28.2,28.2,0,0,1,10.3-38.4h0a28.1,28.1,0,0,1,38.5,10.3l69.6,120.6a37.4,37.4,0,0,0,50.9,13.7h0a37.3,37.3,0,0,0,13.6-50.9l-69.7-120.6a28.3,28.3,0,0,1,10.3-38.5h0a28.2,28.2,0,0,1,38.4,10.3l97.8,169.4A37.3,37.3,0,0,1,796,1505.6Z"/><path class="b" d="M985.6,1396.3h0a28.1,28.1,0,0,1-38.5-10.3l-57.2-99.2a3.1,3.1,0,0,0-5.7,1.1l-5.5,35.4a12,12,0,0,1-16.2,9.3l-33.3-12.9a3,3,0,0,0-3.8,4.3l57.3,99.2a28.2,28.2,0,0,1-10.3,38.4h0a28.2,28.2,0,0,1-38.5-10.2l-101-175.1c-13.7-23.7,8.9-51.8,35-43.5l50.8,25.1a12,12,0,0,0,17.2-10l3.7-56.5c5.9-26.7,41.5-32.2,55.2-8.6l101.1,175.1A28.2,28.2,0,0,1,985.6,1396.3Z"/><path class="b" d="M1039.3,1063.8l-119.6,69a23.5,23.5,0,0,0-8.5,31.9l107.3,185.9a23.4,23.4,0,0,0,31.9,8.5l119.5-69a23.4,23.4,0,0,0,8.6-31.9l-107.3-185.8A23.4,23.4,0,0,0,1039.3,1063.8Zm61.8,173.7a23.3,23.3,0,0,1-8.5,31.9l-21.5,12.4a23.3,23.3,0,0,1-31.8-8.6l-50.7-87.8a23.3,23.3,0,0,1,8.5-31.9l21.4-12.4a23.4,23.4,0,0,1,31.9,8.6Z"/><path class="b" d="M1272.6,956.1l107.3,185.8a23.4,23.4,0,0,0,31.9,8.6l119.5-69.1a23.4,23.4,0,0,0,8.6-31.9L1432.6,863.7a23.3,23.3,0,0,0-31.9-8.5l-119.6,69A23.4,23.4,0,0,0,1272.6,956.1Zm77.3,20.6a23.3,23.3,0,0,1,8.6-31.8l21.4-12.4a23.3,23.3,0,0,1,31.9,8.5l50.7,87.9a23.4,23.4,0,0,1-8.5,31.9l-21.5,12.3a23.4,23.4,0,0,1-31.9-8.5Z"/><path class="b" d="M1089.1,1062l5,8.6a23.3,23.3,0,0,0,31.9,8.5l17.4-10a23.3,23.3,0,0,1,31.8,8.6l78.9,136.6a23.4,23.4,0,0,0,31.9,8.6l8.6-5a23.4,23.4,0,0,0,8.6-31.9l-78.9-136.6a23.3,23.3,0,0,1,8.5-31.9l17.5-10.1a23.4,23.4,0,0,0,8.5-31.9l-4.9-8.6a23.3,23.3,0,0,0-31.9-8.5l-124.3,71.7A23.4,23.4,0,0,0,1089.1,1062Z"/><path class="b" d="M313.7,1335.1l-8.6,4.9a23.3,23.3,0,0,0-8.5,31.9l171.2,296.6a23.4,23.4,0,0,0,31.9,8.6L619.3,1608a23.2,23.2,0,0,0,8.5-31.9L520.5,1390.3a23.4,23.4,0,0,0-31.9-8.6l-70.5,40.7a23.2,23.2,0,0,1-31.9-8.5l-40.6-70.3A23.4,23.4,0,0,0,313.7,1335.1Zm174.8,256.1-50.7-87.8a23.4,23.4,0,0,1,8.6-31.9l21.5-12.5a23.4,23.4,0,0,1,31.9,8.6l50.7,87.8a23.4,23.4,0,0,1-8.5,31.9l-21.6,12.4A23.3,23.3,0,0,1,488.5,1591.2Z"/><rect class="c" x="1838.2" y="739.1" width="1.2" height="1.23" transform="translate(-123.5 1018.5) rotate(-30)"/><rect class="b" x="2077.3" y="192.1" width="56.6" height="285.04" rx="28.3" transform="translate(114.8 1097.6) rotate(-30)"/><path class="b" d="M1942.8,670.9a28.3,28.3,0,0,1-19.9,53l-92.1-34.7a4.5,4.5,0,0,0-5.5,6.5l26.9,46.5c7.4,12.9,4.7,30-7.5,38.6a28.4,28.4,0,0,1-40.9-9L1633.7,477.1c-8.1-14.1-3.8-33.2,10.6-40.7a28.7,28.7,0,0,1,20.4-2.3,28.4,28.4,0,0,1,17.2,13.3l86.6,150.7a4.3,4.3,0,0,0,7.8-1l23.3-89.8a28.3,28.3,0,0,1,54.9,14.1L1833,604.3a26.4,26.4,0,0,0,16.2,31.3Z"/><polygon class="b" points="1773.9 606.6 1774.3 607.4 1773.7 607.1 1773.9 606.6"/><polygon class="d" points="1773.9 606.6 1774.3 607.4 1773.7 607.1 1773.9 606.6"/><rect class="b" x="2188.4" y="493.2" width="56.6" height="67.72" rx="28.3" transform="translate(33.4 1179) rotate(-30)"/><path class="b" d="M1780.7,777.5,1515.9,533.1a28.1,28.1,0,0,0-33.1-3.8l-2.4,1.4a28.2,28.2,0,0,0-13.4,30.4l77.2,352.8a28.1,28.1,0,0,0,55-12l-24.1-110,.9-.4,84.2-48.6,82.3,75.9a28.2,28.2,0,0,0,33.2,3.8,32.7,32.7,0,0,0,6.6-5.3A28.2,28.2,0,0,0,1780.7,777.5Zm-218.2-43.2-15.7-71.8c-2.1-9.4,9.2-15.8,16.3-9.3l53.8,49.7Z"/><path class="b" d="M1998,387.6l-119.5,69a23.4,23.4,0,0,0-8.6,31.9l107.3,185.9a23.5,23.5,0,0,0,31.9,8.5l119.6-69a23.4,23.4,0,0,0,8.5-31.9L2029.9,396.2A23.4,23.4,0,0,0,1998,387.6Zm61.9,173.7a23.4,23.4,0,0,1-8.6,31.9l-21.4,12.4A23.4,23.4,0,0,1,1998,597l-50.7-87.8a23.4,23.4,0,0,1,8.5-31.9l21.5-12.4a23.2,23.2,0,0,1,31.8,8.6Z"/><path class="b" d="M1432.3,726a23.2,23.2,0,0,0-34.6-16.7L1087.8,888.5a28.2,28.2,0,0,0-10.2,38.5,28.2,28.2,0,0,0,38.4,10.2l306.5-177.3a23,23,0,0,0,11.3-23.5Z"/></svg>