<svg xmlns="http://www.w3.org/2000/svg" viewBox="0 0 2085.6 1729.1"><defs><style>.a{fill:#fecc4f;}.b{fill:#231f20;}</style></defs><rect class="a" x="56.1" y="364.9" width="1973.4" height="999.27" rx="168.1" transform="translate(-292.6 637.2) rotate(-30)"/><path class="b" d="M1127.3,775.2l48.9,231.1a23.5,23.5,0,0,1-11.2,25.1l-27.8,16a23.3,23.3,0,0,1-26.2-2L927.4,899.3a23.3,23.3,0,0,0-26.2-1.9L853.3,925a23.5,23.5,0,0,1-31.8-8.2h0a23.4,23.4,0,0,1,8.4-32.2L917.5,834a23.3,23.3,0,0,1,26.6,2.4l120.8,101c17.2,14.4,42.9-1.5,37.6-23.4l-29.7-123.4a23.3,23.3,0,0,1,11-25.6l8.9-5.2A23.5,23.5,0,0,1,1127.3,775.2Z"/><path class="b" d="M1276.2,664.8l-119.5,69a23.4,23.4,0,0,0-8.6,31.9l107.3,185.8a23.4,23.4,0,0,0,31.9,8.6L1406.9,891a23.3,23.3,0,0,0,8.5-31.8L1308.1,673.3A23.3,23.3,0,0,0,1276.2,664.8Zm61.9,173.7a23.4,23.4,0,0,1-8.6,31.9l-21.4,12.3a23.2,23.2,0,0,1-31.9-8.5l-50.7-87.8a23.3,23.3,0,0,1,8.5-31.9l21.5-12.4a23.2,23.2,0,0,1,31.8,8.5Z"/><path class="b" d="M1644.2,628.5l70.5-40.7a23.4,23.4,0,0,0,8.6-31.9l-53-91.7a23.4,23.4,0,0,0-31.9-8.6l-119.6,69a23.4,23.4,0,0,0-8.5,31.9l107.3,185.9a23.4,23.4,0,0,0,31.9,8.6l118.2-68.3a23.4,23.4,0,0,0,8.6-31.9l-5-8.6a23.4,23.4,0,0,0-31.9-8.5l-69.1,39.9a23.3,23.3,0,0,1-31.9-8.5l-2.7-4.6A23.4,23.4,0,0,1,1644.2,628.5Zm-62.2-61a23.4,23.4,0,0,1,8.6-31.9l21.4-12.4a23.3,23.3,0,0,1,31.9,8.5l7.7,13.4A23.3,23.3,0,0,1,1643,577l-21.4,12.4a23.4,23.4,0,0,1-31.9-8.6Z"/><path class="b" d="M1491.6,567.4l4.9,8.6a23.2,23.2,0,0,1-8.5,31.9l-17.4,10a23.4,23.4,0,0,0-8.5,31.9L1541,786.5a23.4,23.4,0,0,1-8.6,31.9l-8.5,4.9a23.3,23.3,0,0,1-31.9-8.5l-78.9-136.7a23.4,23.4,0,0,0-31.9-8.5l-17.5,10.1a23.4,23.4,0,0,1-31.9-8.6l-4.9-8.6a23.3,23.3,0,0,1,8.5-31.9l124.3-71.7A23.4,23.4,0,0,1,1491.6,567.4Z"/><rect class="b" x="1866.8" y="673.3" width="56.6" height="67.72" rx="28.3" transform="translate(-99.7 1042.3) rotate(-30)"/><path class="b" d="M1053.4,569.7l81.5,28.2c22.9,7.9,25.9,39.1,4.9,51.2l-3.8,2.2a28,28,0,0,1-23.3,2.2l-63.2-21.8a28.3,28.3,0,0,0-37,21.4l-12.7,65.6a28.1,28.1,0,0,1-13.6,19.1l-3.8,2.2c-21,12.1-46.5-6.1-41.9-29.9l16.4-84.7a28.2,28.2,0,0,0-18.6-32.1l-81.5-28.2c-22.9-7.9-25.9-39.1-4.9-51.2l3.8-2.2a28.4,28.4,0,0,1,23.3-2.3l63.2,21.8a28.2,28.2,0,0,0,37-21.3l12.7-65.6a28.1,28.1,0,0,1,13.6-19.1l3.8-2.2c21-12.1,46.5,6.1,41.9,29.9l-16.4,84.7A28.4,28.4,0,0,0,1053.4,569.7Z"/><path class="b" d="M1505,470h0a17.9,17.9,0,0,1-9.1-20l22.7-92.9a17.9,17.9,0,0,1,23.3-12.6l22.2,7.7a17.9,17.9,0,0,1,9.9,25.3l-44.9,85.1A17.8,17.8,0,0,1,1505,470Z"/><rect class="b" x="1181.2" y="486" width="274.6" height="56.25" rx="28.1" transform="translate(-80.4 728.1) rotate(-30)"/><rect class="b" x="760.2" y="764.7" width="150.9" height="56.25" rx="28.1" transform="translate(-284.5 524.1) rotate(-30)"/><rect class="b" x="1105.7" y="317.9" width="553.1" height="56.25" rx="28.1" transform="translate(12.2 737.5) rotate(-30)"/><path class="b" d="M840.4,658.9h0a28.2,28.2,0,0,1-10.3,38.4L540.6,864.5a28.1,28.1,0,0,0-14,26.2l12.2,189.7a28.9,28.9,0,0,0,3.7,12.2l58.4,101.1a28.2,28.2,0,0,1-10.3,38.4h0a28.1,28.1,0,0,1-38.5-10.3l-58.3-101a29.1,29.1,0,0,0-8.7-9.4L297.8,986.6a28.2,28.2,0,0,1,1.6-47.8h0a28.1,28.1,0,0,1,29.7.9L463,1029.1a10.1,10.1,0,0,0,15.6-9L468.2,859.4a27.9,27.9,0,0,1,14-26.1L802,648.6A28.2,28.2,0,0,1,840.4,658.9Z"/><path class="b" d="M695.6,828.8l-119.5,69a23.4,23.4,0,0,0-8.5,31.9l124.1,215.1a23.3,23.3,0,0,0,31.9,8.5l119.6-69a23.3,23.3,0,0,0,8.5-31.9l-124.2-215A23.4,23.4,0,0,0,695.6,828.8Zm78.8,203a23.3,23.3,0,0,1-8.6,31.8L744.4,1076a23.3,23.3,0,0,1-31.9-8.5L644.9,950.4a23.4,23.4,0,0,1,8.6-31.9l21.4-12.4a23.4,23.4,0,0,1,31.9,8.6Z"/><path class="b" d="M1812.1,787.7,523.9,1531.1a28.2,28.2,0,0,1-38.4-10.4h0a28.2,28.2,0,0,1,10.4-38.4L1784,738.9a28.3,28.3,0,0,1,38.5,10.4h0A28.1,28.1,0,0,1,1812.1,787.7Z"/><path class="b" d="M1033.2,1070a23.2,23.2,0,0,1-2.8,38.3L573.5,1371.8a28.1,28.1,0,1,1-28.1-48.7L999,1061.5a23.3,23.3,0,0,1,26,2Z"/><path class="b" d="M1814.4,623.9,1643.2,326.6a28.1,28.1,0,0,1,10.3-38.4h0a28.1,28.1,0,0,1,38.4,10.4l171.3,297.2a28.1,28.1,0,0,1-10.4,38.4h0A28.1,28.1,0,0,1,1814.4,623.9Z"/><rect class="b" x="200.3" y="985.2" width="56.6" height="67.72" rx="28.3" transform="translate(-478.9 250.8) rotate(-30)"/><path class="b" d="M309.3,1102.3l168.5,292.4a28.1,28.1,0,0,1-10.4,38.4h0a28.1,28.1,0,0,1-38.4-10.3L260.6,1130.4a28.1,28.1,0,0,1,10.3-38.4h0A28.1,28.1,0,0,1,309.3,1102.3Z"/></svg>