<svg xmlns="http://www.w3.org/2000/svg" viewBox="0 0 2199.3 1813"><defs><style>.a{fill:#fecc4f;}.b{fill:#231f20;}.c{fill:#eae518;}</style></defs><rect class="a" x="56.4" y="391" width="2086.4" height="1030.89" rx="168.1" transform="translate(-305.9 671.3) rotate(-30)"/><rect class="b" x="401.3" y="1111" width="56.6" height="275.87" rx="28.3" transform="translate(-566.9 382.1) rotate(-30)"/><rect class="b" x="509.9" y="1403.1" width="56.6" height="67.72" rx="28.3" transform="translate(-646.4 461.6) rotate(-30)"/><path class="b" d="M1090.4,644.7,1075,724.5c-4.9,25.2,22.1,44.4,44.4,31.6h0a30,30,0,0,0,14.4-20.2l12.2-63a29.8,29.8,0,0,1,39.1-22.6l60.7,20.9a29.7,29.7,0,0,0,24.7-2.4h0c22.2-12.8,19.1-45.8-5.2-54.2l-76.8-26.5a30,30,0,0,1-19.6-34l15.4-79.8c4.9-25.2-22.1-44.4-44.4-31.6h0a30.2,30.2,0,0,0-14.4,20.3l-12.2,62.9a29.8,29.8,0,0,1-39.1,22.6l-60.7-20.9a29.7,29.7,0,0,0-24.7,2.4h0c-22.2,12.8-19.1,45.8,5.2,54.2l76.8,26.5A30,30,0,0,1,1090.4,644.7Z"/><path class="b" d="M1883.6,716.7,1533,918.8a28.1,28.1,0,0,1-38.4-10.4h0a28.1,28.1,0,0,1,10.3-38.4l350.6-202.1a28.1,28.1,0,0,1,38.4,10.4h0A28.1,28.1,0,0,1,1883.6,716.7Z"/><path class="b" d="M1452.8,547.4l-97.2,55.8a28.2,28.2,0,0,1-38.5-10.3h0a28.1,28.1,0,0,1,10.4-38.4l97.3-55.8a28.1,28.1,0,0,1,38.4,10.3h0A28.1,28.1,0,0,1,1452.8,547.4Z"/><path class="b" d="M1336.2,798.8,955.9,1018.1a28.2,28.2,0,0,1-38.5-10.3h0a28.1,28.1,0,0,1,10.4-38.4l380.4-219.3a28.1,28.1,0,0,1,38.4,10.3h0A28.1,28.1,0,0,1,1336.2,798.8Z"/><path class="b" d="M1041.1,1324.7,615,1570.4a28.1,28.1,0,0,1-38.4-10.4h0a28.1,28.1,0,0,1,10.3-38.4L1013,1275.9a28.1,28.1,0,0,1,38.4,10.4h0A28.1,28.1,0,0,1,1041.1,1324.7Z"/><path class="b" d="M1936.3,807.9l-683.5,394.2a28.1,28.1,0,0,1-38.4-10.3h0a28.1,28.1,0,0,1,10.3-38.4l683.5-394.3a28.2,28.2,0,0,1,38.4,10.4h0A28.2,28.2,0,0,1,1936.3,807.9Z"/><path class="b" d="M966,715,332.2,1080.6a28.1,28.1,0,0,1-38.4-10.4h0a28.1,28.1,0,0,1,10.3-38.4L938,666.3a28.1,28.1,0,0,1,38.4,10.3h0A28.1,28.1,0,0,1,966,715Z"/><path class="b" d="M1022.4,812.7,496.1,1116.3a28.3,28.3,0,0,1-38.5-10.4h0a28.2,28.2,0,0,1,10.4-38.4L994.4,764a28.1,28.1,0,0,1,38.4,10.3h0A28.1,28.1,0,0,1,1022.4,812.7Z"/><path class="b" d="M1545.4,380,1306.2,517.8a28.1,28.1,0,0,1-38.4-10.4h0a28.1,28.1,0,0,1,10.3-38.4l239.2-137.7a28,28,0,0,1,38.4,10.3h0A28,28,0,0,1,1545.4,380Z"/><path class="c" d="M764.7,1274.1l2.6,4.5a13,13,0,0,0-4.9-4.8Z"/><path class="b" d="M1614.1,307.5l145.3,251.7a24.8,24.8,0,0,1-9.1,33.8l-42,24.3-4.1,2.1-1.2.4h-.1a6.4,6.4,0,0,1-7.7-7.7c5.8-23.8,4.2-43.1-4.8-58.6-29.9-51.8-75.3-70.3-115.8-47.1l-.3.2c-40.3,23.4-47,72-17.1,123.8,8,13.9,22.4,24.2,39.6,31.5a6.4,6.4,0,0,1,2.1,10.3c-2.8,2.8-5.6,5.6-8.6,8.3-11.2,10.2-28.4,18.5-35.2,18.5h-.1c-26.3-26-62.4-36.7-104.7-30.9a177.4,177.4,0,0,0-24.8,5.1,28.1,28.1,0,0,0-17.8,39.8h0a28.3,28.3,0,0,0,32.7,14.5c15.7-4.4,37.5-7.6,56.6-.2,5,1.8,5.4,8.7.8,11.4l-51.5,29.7a28.1,28.1,0,0,0-10.3,38.4h0a28.1,28.1,0,0,0,38.4,10.3l73.9-42.6a45.2,45.2,0,0,0,18.8-20.6c24.3-4.2,47.5-19.5,61.1-31.8a239.5,239.5,0,0,0,36.5-42.2,6.4,6.4,0,0,1,5.7-2.9c23.8,1.1,44.7-1.2,54.8-5.5a106.3,106.3,0,0,0,11.2-5.6l68.1-39.3a51,51,0,0,0,18.6-69.6L1662.8,279.4a28.1,28.1,0,0,0-38.4-10.3h0A28,28,0,0,0,1614.1,307.5Zm20.2,305.8c-1.2.7-25.5-6.4-28.4-11-6.3-11-19.4-37.6-3.3-47.1s32.1,14.4,38.7,25.8a3.6,3.6,0,0,1,.7,1.7C1642.5,585.4,1635.6,612.7,1634.3,613.3Z"/><path class="b" d="M1392.9,854.7c-20.4-5.9-41.3-3.2-60.5,7.9-53,30.6-54.9,100.9-52.1,136.7a1.9,1.9,0,0,1-1,1.9,130.9,130.9,0,0,1-61.9,17.5h-2.7l-16.4-28.4a28.1,28.1,0,0,0-48.7,28.1l13.8,23.9a22.2,22.2,0,0,1-8.2,30.4l-25.1,14.5-12.4-21.5c-14.7-25.4-33.7-35-47.1-38.5-33.5-8.9-64.2,9.1-77.5,16.6l-1.3.8c-41.2,23.8-50.7,64.3-25.3,108.3,18.3,31.6,50.4,46.2,86,39.1a82,82,0,0,0,25.6-9.8l30.9-17.8c8.3,20.3,3.6,44.3-12.5,59.2a197.6,197.6,0,0,1-18.7,15,28.1,28.1,0,0,0,30.5,47.2l2.4-1.5a241.7,241.7,0,0,0,24-19.5c35.2-32.5,44.4-85.6,23.3-128.7l74.1-42.8a22.1,22.1,0,0,0,11-20.8,184.5,184.5,0,0,0,64.2-22.6l155.5-89.8a23.3,23.3,0,0,0,9-31l-2.2-4.1C1466.5,919.2,1438.3,867.8,1392.9,854.7Zm-311.5,260.8-31.4,18.1a26.1,26.1,0,0,1-8.4,3.3c-15.4,3.1-21.9-4.4-26.3-12-7-12.1-12.5-21.6,4.6-31.5l1.5-.8c7.1-4.1,23.8-13.8,34.8-10.9,1.6.4,6.7,1.8,12.7,12.2Zm316-182.5-50.9,29.4a6.3,6.3,0,0,1-9.4-6.5c2.6-18.7,9.3-36.4,23.5-44.6,5.9-3.4,10.9-4.2,16.7-2.6,7.4,2.1,14.8,7.7,21.3,14.3A6.3,6.3,0,0,1,1397.4,933Z"/><path class="b" d="M877.8,1141.4l53.9,93.4a27.7,27.7,0,0,1-10.1,37.9l-48.7,28.1a218,218,0,0,1-62.7,24.6l-6.1,1.2a27.9,27.9,0,0,1-13.8,21.9l-68.2,39.4a214.9,214.9,0,0,1-62.7,24.5c-39.1,8.4-65.2,1.6-77.8-20.1l-9-15.7a28,28,0,0,1,10.3-38.4l3.6-2.1a24,24,0,0,1,32.7,8.7,26.3,26.3,0,0,0,12,10.9,26,26,0,0,0,16.1,1.8h.3a160.6,160.6,0,0,0,46.4-18.3l19.5-11.2a27.8,27.8,0,0,0,10.1-37.9l-25.8-44.7a28.1,28.1,0,1,1,48.7-28.1l32,55.4-2.3-.3a13.1,13.1,0,0,1,4.9,4.8l-2.6-4.5c3.2.2,9.3,0,19.8-2.2a161.3,161.3,0,0,0,46.4-18.3,27.4,27.4,0,0,0,13-16.8,28.1,28.1,0,0,0-2.8-21.1l-25.8-44.7a28.1,28.1,0,1,1,48.7-28.1Z"/><path class="b" d="M778.5,1272.6l2.6,4.5a13.1,13.1,0,0,0-4.9-4.8Z"/><rect class="b" x="1494.8" y="440.3" width="56.6" height="67.72" rx="28.3" transform="translate(-33 825.1) rotate(-30)"/><rect class="b" x="1561.8" y="401.7" width="56.6" height="67.72" rx="28.3" transform="translate(-4.7 853.4) rotate(-30)"/><rect class="b" x="745.3" y="1057.2" width="56.6" height="67.72" rx="28.3" transform="translate(-441.9 533) rotate(-30)"/><rect class="b" x="812.2" y="1018.5" width="56.6" height="67.72" rx="28.3" transform="translate(-413.6 561.3) rotate(-30)"/><rect class="b" x="544.8" y="1172.9" width="56.6" height="67.72" rx="28.3" transform="translate(-526.6 448.2) rotate(-30)"/><rect class="b" x="611.7" y="1134.3" width="56.6" height="67.72" rx="28.3" transform="translate(-498.3 476.5) rotate(-30)"/></svg>