<svg xmlns="http://www.w3.org/2000/svg" viewBox="0 0 2334.3 1890.9"><defs><style>.a{fill:#fecc4f;}.b{fill:#231f20;}.c{fill:#eae518;}</style></defs><rect class="a" x="46" y="430" width="2242.3" height="1030.89" rx="168.1" transform="translate(-316.4 710.3) rotate(-30)"/><rect class="b" x="384.3" y="1331.2" width="56.6" height="275.87" rx="28.3" transform="translate(-679.3 403.1) rotate(-30)"/><rect class="b" x="492.9" y="1623.3" width="56.6" height="67.72" rx="28.3" transform="translate(-758.7 482.6) rotate(-30)"/><path class="b" d="M1009.4,762.8,994,842.6c-4.9,25.2,22.2,44.4,44.4,31.6h0a29.7,29.7,0,0,0,14.4-20.2l12.2-63a29.9,29.9,0,0,1,39.2-22.6l60.6,20.9a29.7,29.7,0,0,0,24.7-2.3h0c22.2-12.9,19.1-45.9-5.2-54.3l-76.8-26.5a30.1,30.1,0,0,1-19.6-34l15.4-79.8c4.9-25.2-22.1-44.4-44.3-31.6h0a30.2,30.2,0,0,0-14.5,20.3L1032.4,644a29.9,29.9,0,0,1-39.2,22.6l-60.6-20.9a30.3,30.3,0,0,0-24.8,2.4h0c-22.2,12.8-19,45.8,5.2,54.2l76.8,26.6A29.7,29.7,0,0,1,1009.4,762.8Z"/><path class="b" d="M2091.7,667.9,1744.3,868.1a28.1,28.1,0,0,1-38.4-10.3h0a28.2,28.2,0,0,1,10.3-38.4l347.4-200.2a28,28,0,0,1,38.4,10.3h0A28,28,0,0,1,2091.7,667.9Z"/><path class="b" d="M1213.9,1296.3,708.5,1587.7a28,28,0,0,1-38.4-10.3h0a28.1,28.1,0,0,1,10.3-38.4l505.5-291.5a28.2,28.2,0,0,1,38.4,10.4h0A28.2,28.2,0,0,1,1213.9,1296.3Z"/><path class="b" d="M2144.3,759.1,1797,959.3a28.2,28.2,0,0,1-38.5-10.3h0a28.1,28.1,0,0,1,10.4-38.4l347.4-200.3a28.2,28.2,0,0,1,38.4,10.4h0A28.1,28.1,0,0,1,2144.3,759.1Z"/><path class="b" d="M941.4,930.8l-630,363.4a28,28,0,0,1-38.4-10.3h0a28.1,28.1,0,0,1,10.3-38.4L913.4,882.1a28.1,28.1,0,0,1,38.4,10.3h0A28.1,28.1,0,0,1,941.4,930.8Z"/><path class="b" d="M1458.9,632.1l-177,101.8a28.1,28.1,0,0,1-38.5-10.3h0a28.1,28.1,0,0,1,10.4-38.4l177.1-101.9a28.2,28.2,0,0,1,38.4,10.4h0A28.2,28.2,0,0,1,1458.9,632.1Z"/><path class="b" d="M1298.6,854.9l-357.4,206a28.2,28.2,0,0,1-38.4-10.4h0a28.2,28.2,0,0,1,10.4-38.4l357.3-205.9a28.1,28.1,0,0,1,38.4,10.3h0A28.1,28.1,0,0,1,1298.6,854.9Z"/><path class="b" d="M764.6,1163.2,463.8,1336.5a28.1,28.1,0,0,1-38.4-10.3h0a28.1,28.1,0,0,1,10.3-38.4l300.8-173.3a28.1,28.1,0,0,1,38.4,10.3h0A28.1,28.1,0,0,1,764.6,1163.2Z"/><path class="b" d="M884.8,832.6,254.7,1196a28,28,0,0,1-38.4-10.3h0a28.1,28.1,0,0,1,10.3-38.4L856.7,783.9a28.1,28.1,0,0,1,38.4,10.3h0A28.2,28.2,0,0,1,884.8,832.6Z"/><path class="b" d="M1861.3,268.8,1215.5,641.3a28.2,28.2,0,0,1-38.4-10.3h0a28.1,28.1,0,0,1,10.4-38.4l645.7-372.5a28.1,28.1,0,0,1,38.4,10.3h0A28.1,28.1,0,0,1,1861.3,268.8Z"/><path class="c" d="M976,1223.5l2.6,4.5a11.6,11.6,0,0,0-4.9-4.8Z"/><rect class="b" x="1563.2" y="493.5" width="56.6" height="67.72" rx="28.3" transform="translate(-50.5 866.4) rotate(-30)"/><path class="b" d="M1956.5,413.9c-33.2-35.2-72.8-42.9-100.9-19.6-35.7,29.7-30.7,83.3-27,122.3.3,3.5.7,7.3,1,11.1a16,16,0,0,1-7.8,15c-13.3,7.8-31.6,18.1-47.5,26.9-5.7-10.3-12.4-21-20-32-11.1-16.1-22.4-30.4-31.5-41.5a28,28,0,0,0-35.5-6.2,25.1,25.1,0,0,0-5.4,4,28,28,0,0,0-2.1,38.3c33.7,40.2,69.3,96.3,64.9,126.7-1.1,7.4-4.6,12.1-11.9,16.4l-7,4c-38.3,22.2-74.4,43.1-95,34-11.5-5-27.6-22.8-42.4-76.6a28.1,28.1,0,0,0-33.1-20h-.2a27.8,27.8,0,0,0-21,34.5c17.3,62.7,41.1,99.1,74,113.5,44.7,19.7,90.6-4.9,139.2-32.9l13.6-7.9c22.3-12.9,35.9-32.6,39.4-57.1,2-13.6.8-28.7-3.8-45.2,19-10.5,60.4-33.8,73.5-42.7,11.2-7.7,15.3-18.8,16.3-32.5a6.6,6.6,0,0,1,7.5-6.3c26.1,3.5,54.2,3.3,74.1-8.2a51.4,51.4,0,0,0,11.9-9.4C2005.7,495,1987.6,447,1956.5,413.9Zm-35,72c-9.3-.2-21-1.7-33.3-4a7.5,7.5,0,0,1-5.9-7.3c.1-16.1,2.1-31.1,9.3-37.1l.4-.3c1.1-.2,7.8.9,18.1,10a94.1,94.1,0,0,1,19.8,25A9.3,9.3,0,0,1,1921.5,485.9Z"/><path class="b" d="M1580.3,1057.5h0c-10.3-11.7-10.4-29.1-.3-40,8.3-9,16.2-18.3,22.2-26.3a44.6,44.6,0,0,0,5.1-44.8c-6-13.6-16.8-30.8-34.8-52.2-10.1-11.9-9.8-29.5.7-40.1h0c11.5-11.5,30.5-10.2,41.6,2.9,32.5,38.3,65.7,89.7,53.8,133.9-5.7,21.1-28.8,49.1-46.5,68.1C1610.9,1071,1591.7,1070.3,1580.3,1057.5Z"/><rect class="b" x="1438.5" y="749.6" width="56.3" height="258.94" rx="28.1" transform="translate(-243.1 851.1) rotate(-30)"/><rect class="b" x="882.2" y="1070.8" width="56.2" height="258.94" rx="28.1" transform="translate(-478.2 616) rotate(-30)"/><path class="b" d="M1372.2,1204.9c-6.9,3.9-67.8,36.9-122,6.1-31-17.7-51.1-51.3-60-100-3.1-16.8,8.5-32,24.9-32.7h.7c14.6-.6,27.7,10.1,30.4,24.8,4.4,23.9,13.1,47.4,30,57.1,26.4,15,66.1-6.4,66.5-6.6,78.6-45.4,91.8-84.8,94-95.8v-.2c1.2-6-5-11.3-10.5-9.1a47.9,47.9,0,0,0-5.5,2.8c-87.5,50.5-119.7,2.3-123.1-3.4-23.2-40.3-28.2-75.9-14.9-106.4,12.1-27.7,36.3-43.4,56.5-52,16.3-7,35.3,3.8,38.9,22l.2.7c2.6,13.5-4,26.5-16,31.8s-22.8,12.5-27.5,23.4c-3.9,9.1-2.8,21,3.1,35.6,3.4,8.3,12.3,13.2,20.7,11.2s18.6-6.1,32.5-14.1c31.1-18,73.4-17.4,94.1,18.4,14.5,25.2,11.6,58.8-8,92S1421.1,1176.6,1372.2,1204.9Z"/><path class="b" d="M1114,1232.4l-63.7,36.7a28.1,28.1,0,0,1-38.4-10.3h0a28.2,28.2,0,0,1,10.3-38.4l64.9-37.4a11.2,11.2,0,0,0,5.3-7.5,11.6,11.6,0,0,0-2.6-9.5c-27-32.7-51.9-40.8-67.4-42.2a27.6,27.6,0,0,1-23.5-18.2h0a28.1,28.1,0,0,1,28.6-37.7c28.1,2.4,67.2,15.7,105.7,62.3a67.7,67.7,0,0,1,10.6,68.7C1138.1,1213.1,1127.3,1224.7,1114,1232.4Z"/><path class="b" d="M867.3,1374.8l-63.6,36.8a28.3,28.3,0,0,1-38.5-10.3h0a28.3,28.3,0,0,1,10.3-38.5l64.9-37.4a11.2,11.2,0,0,0,5.3-7.5,11.8,11.8,0,0,0-2.5-9.5c-27.1-32.6-51.9-40.8-67.5-42.2a27.6,27.6,0,0,1-23.5-18.2h0a28.1,28.1,0,0,1,28.6-37.7c28.1,2.4,67.2,15.8,105.7,62.3a67.9,67.9,0,0,1,10.7,68.7C891.5,1355.5,880.6,1367.1,867.3,1374.8Z"/><path class="b" d="M633.8,1630.9h0a28.2,28.2,0,0,1-38.4-10.3l-32.9-57a67.6,67.6,0,0,1,24.8-92.4l71-41a4.5,4.5,0,0,0-.9-8.2c-28.9-9.7-43-9.5-46.5-8.1s-5.1,4.3-5.1,4.3l.7,12.5c1.6,7.8.1,15.9-6.5,20.4l-17.7,12a17.3,17.3,0,0,1-25.8-8c-4.2-10.8-8.4-37.2-5.5-49.7s10.4-27.8,32.2-40.4c16.2-9.4,47.1-17.7,128.4,17.8,14.1,6.1,24.8,18.7,27.1,33.8a43.5,43.5,0,0,1-21.3,44.4l-102,58.9a11.3,11.3,0,0,0-4.2,15.6l32.9,57A28.1,28.1,0,0,1,633.8,1630.9Z"/></svg>