<svg xmlns="http://www.w3.org/2000/svg" viewBox="0 0 2409.1 1934.1"><defs><style>.a{fill:#fecc4f;}.b{fill:#231f20;}</style></defs><rect class="a" x="40.2" y="451.6" width="2328.7" height="1030.89" rx="168.1" transform="translate(-322.1 731.8) rotate(-30)"/><path class="b" d="M1060.4,1017.8l48.9,231.1a23.4,23.4,0,0,1-11.2,25.1l-27.7,16a23.4,23.4,0,0,1-26.2-1.9L860.5,1141.9a23.4,23.4,0,0,0-26.2-1.9l-47.9,27.7a23.3,23.3,0,0,1-31.7-8.3h0a23.3,23.3,0,0,1,8.4-32.2l87.5-50.5a23.4,23.4,0,0,1,26.7,2.3L998,1180c17.2,14.4,42.9-1.5,37.7-23.4L1006,1033.3a23.2,23.2,0,0,1,11-25.7l8.9-5.2A23.4,23.4,0,0,1,1060.4,1017.8Z"/><path class="b" d="M1209.4,907.4l-119.6,69a23.4,23.4,0,0,0-8.5,31.9l107.3,185.9a23.4,23.4,0,0,0,31.9,8.5l119.5-69a23.3,23.3,0,0,0,8.5-31.9L1241.2,916A23.3,23.3,0,0,0,1209.4,907.4Zm61.8,173.7a23.3,23.3,0,0,1-8.6,31.9l-21.4,12.4a23.4,23.4,0,0,1-31.9-8.6l-50.7-87.8a23.4,23.4,0,0,1,8.6-31.9l21.4-12.4a23.4,23.4,0,0,1,31.9,8.6Z"/><path class="b" d="M1424.7,810.1l5,8.5a23.4,23.4,0,0,1-8.6,31.9l-17.3,10.1a23.3,23.3,0,0,0-8.6,31.8l78.9,136.7a23.4,23.4,0,0,1-8.5,31.9l-8.6,5a23.4,23.4,0,0,1-31.9-8.6l-78.9-136.6a23.4,23.4,0,0,0-31.9-8.6l-17.4,10.1a23.4,23.4,0,0,1-31.9-8.6l-5-8.6a23.3,23.3,0,0,1,8.5-31.8l124.3-71.8A23.4,23.4,0,0,1,1424.7,810.1Z"/><path class="b" d="M1805.8,590l107.3,185.8a23.4,23.4,0,0,0,31.9,8.6l119.6-69a23.4,23.4,0,0,0,8.5-31.9L1965.8,497.6a23.3,23.3,0,0,0-31.9-8.5l-119.5,69A23.4,23.4,0,0,0,1805.8,590Zm77.4,20.7a23.2,23.2,0,0,1,8.5-31.9l21.5-12.4a23.5,23.5,0,0,1,31.9,8.5l50.7,87.9a23.4,23.4,0,0,1-8.6,31.9L1965.8,707a23.2,23.2,0,0,1-31.9-8.5Z"/><path class="b" d="M1622.4,695.9l5,8.6a23.3,23.3,0,0,0,31.8,8.6l17.4-10.1a23.4,23.4,0,0,1,31.9,8.6l78.9,136.6a23.4,23.4,0,0,0,31.9,8.6l8.6-5a23.3,23.3,0,0,0,8.5-31.9l-78.9-136.6a23.4,23.4,0,0,1,8.6-31.9l17.4-10.1a23.4,23.4,0,0,0,8.6-31.9l-5-8.6a23.3,23.3,0,0,0-31.9-8.5L1630.9,664A23.4,23.4,0,0,0,1622.4,695.9Z"/><path class="b" d="M1279.1,643.4l81.6,28.2c22.9,7.9,25.9,39.1,4.9,51.2l-3.8,2.2a28.7,28.7,0,0,1-23.4,2.3l-63.1-21.8a28.2,28.2,0,0,0-37,21.3l-12.7,65.6a28.6,28.6,0,0,1-13.7,19.1l-3.8,2.2c-21,12.1-46.5-6-41.9-29.8l16.4-84.8a28.3,28.3,0,0,0-18.5-32.1l-81.6-28.2c-22.9-7.9-25.9-39.1-4.9-51.2l3.8-2.2a28.2,28.2,0,0,1,23.4-2.2l63.1,21.8a28.3,28.3,0,0,0,37-21.4l12.7-65.6a28.1,28.1,0,0,1,13.6-19.1l3.8-2.2c21-12.1,46.5,6.1,41.9,29.9l-16.4,84.7A28.4,28.4,0,0,0,1279.1,643.4Z"/><rect class="b" x="1390.1" y="497.1" width="525.1" height="56.25" rx="28.1" transform="translate(-41.2 896.7) rotate(-30)"/><rect class="b" x="670.7" y="922.9" width="488.7" height="56.25" rx="28.1" transform="matrix(0.87, -0.5, 0.5, 0.87, -352.92, 584.96)"/><rect class="b" x="1325" y="367.7" width="648.9" height="56.25" rx="28.1" transform="translate(23.1 877.8) rotate(-30)"/><rect class="b" x="402.9" y="877.3" width="728" height="56.25" rx="28.1" transform="translate(-350 504.7) rotate(-30)"/><path class="b" d="M628.8,1071.5l-119.6,69a23.4,23.4,0,0,0-8.5,31.9l124.2,215a23.4,23.4,0,0,0,31.9,8.6l119.5-69a23.3,23.3,0,0,0,8.5-31.9L660.7,1080A23.3,23.3,0,0,0,628.8,1071.5Zm78.7,202.9a23.4,23.4,0,0,1-8.5,31.9l-21.5,12.3a23.3,23.3,0,0,1-31.9-8.5L578,1193a23.3,23.3,0,0,1,8.6-31.8l21.4-12.4a23.3,23.3,0,0,1,31.9,8.5Z"/><path class="b" d="M2117,815.7,549.9,1720.1a28.2,28.2,0,0,1-38.4-10.3h0a28.3,28.3,0,0,1,10.4-38.5L2088.9,767a28.1,28.1,0,0,1,38.4,10.3h0A28.2,28.2,0,0,1,2117,815.7Z"/><path class="b" d="M966.4,1312.7a23.2,23.2,0,0,1-2.9,38.3L493.3,1622.1a28.1,28.1,0,0,1-38.4-10.3,28.4,28.4,0,0,1-2.7-21.4,27.6,27.6,0,0,1,13.1-17l466.8-269.2a23.3,23.3,0,0,1,26.1,1.9Z"/><rect class="b" x="2162.3" y="706.7" width="56.6" height="67.72" rx="28.3" transform="translate(-76.8 1194.5) rotate(-30)"/><path class="b" d="M2109.9,657.3,1938.7,360a28.1,28.1,0,0,1,10.3-38.4h0a28.1,28.1,0,0,1,38.4,10.4l171.3,297.2a28.3,28.3,0,0,1-10.3,38.5h0A28.3,28.3,0,0,1,2109.9,657.3Z"/><path class="b" d="M1657.8,801.4l54.4,94.2a13.4,13.4,0,0,0-1.2-2.4l-51.6-89.5A18.8,18.8,0,0,0,1657.8,801.4Zm-149.9,62.8a16.4,16.4,0,0,0-2.2,1.4l85.9-49.5,1.4-1Zm-9.3,30.5.8,1.4,51.6,89.5a19.5,19.5,0,0,0,1.8,2.5L1498,893.3Z"/><path class="b" d="M1571.8,698.7l-119.5,69a23.4,23.4,0,0,0-9.8,29.4l24.5,42.5a23.4,23.4,0,0,0,31.9,8.5l8.6-5a22.7,22.7,0,0,0,10.9-14.4,22.3,22.3,0,0,0-.5-13.5l-.7-1.8h0c-4.9-10.8,1.8-19.1,12.2-25.2l21.5-12.4a23.7,23.7,0,0,1,32.1,8.9l12.4,21.5a8.5,8.5,0,0,1-2.4,9,7.1,7.1,0,0,1-1.4,1l-85.9,49.6a23.2,23.2,0,0,0-7.7,27.6l54.8,94.8a23.2,23.2,0,0,0,30.1,6l56.3-32.4a9.5,9.5,0,0,0,3.2-3.4l12.5-23.7a7.9,7.9,0,0,1,3.2-3.3,8.5,8.5,0,0,1,11.6,3.1,8.2,8.2,0,0,0,11.4,3l21.4-12.3a23.3,23.3,0,0,0,9.7-29.5L1602.2,705A23.3,23.3,0,0,0,1571.8,698.7Zm52.5,192.8-13.1,24.7c-7,13.2-31.1,17.2-38.8,4.3l-3.3-5.8a21.1,21.1,0,0,1-2.1-4.6c-3.2-10.2,5.8-24.5,15.5-30.1l21.4-12.4h.2c12.7-7.1,27.4,6.3,22.1,19.8A38.9,38.9,0,0,1,1624.3,891.5Z"/><path class="b" d="M409.9,1111.5l171.7,297.3a28.3,28.3,0,0,1-10.3,38.5h0a28.3,28.3,0,0,1-38.5-10.3l-63-109.2a28.1,28.1,0,0,0-38.4-10.3l-36.7,21.2a28.1,28.1,0,0,0-10.3,38.4l63,109.2a28.1,28.1,0,0,1-10.3,38.4h0a28.1,28.1,0,0,1-38.4-10.3L227.1,1217a28.1,28.1,0,0,1,10.2-38.4h0a28.3,28.3,0,0,1,38.5,10.3l52.4,90.8a28.2,28.2,0,0,0,38.4,10.3l36.7-21.2a28.2,28.2,0,0,0,10.3-38.4l-52.4-90.8a28.1,28.1,0,0,1,10.3-38.4h0A28.1,28.1,0,0,1,409.9,1111.5Z"/></svg>